<?xml version="1.0" encoding="UTF-8"?>
<svg xmlns="http://www.w3.org/2000/svg" xmlns:xlink="http://www.w3.org/1999/xlink" width="202pt" height="52pt" viewBox="0 0 202 52">
<path fill-rule="nonzero" fill="rgb(0%, 0%, 0%)" fill-opacity="1" d="M 189.390625 30.179688 L 192.8125 30.179688 L 195.601562 38.640625 L 198.390625 30.179688 L 201.78125 30.179688 L 197.160156 43.230469 L 197.160156 51.179688 L 194.007812 51.179688 L 194.007812 43.230469 Z M 168.179688 33.179688 L 168.179688 30.179688 L 181.019531 30.179688 L 181.019531 33.179688 L 176.25 33.179688 L 176.25 51.179688 L 172.949219 51.179688 L 172.949219 33.179688 Z M 151.917969 50.007812 L 151.917969 31.351562 L 149.101562 31.351562 L 149.101562 30.179688 L 158.070312 30.179688 L 158.070312 31.351562 L 155.21875 31.351562 L 155.21875 50.007812 L 158.070312 50.007812 L 158.070312 51.179688 L 149.101562 51.179688 L 149.101562 50.007812 Z M 127.320312 46.351562 L 127.320312 45.089844 L 130.621094 45.089844 L 130.621094 46.230469 C 130.621094 47.367188 131.640625 48.179688 132.601562 48.179688 C 133.5625 48.179688 134.578125 47.367188 134.578125 46.230469 L 134.578125 44.28125 C 134.578125 42.867188 133.351562 42.390625 131.96875 42.117188 C 129.390625 41.609375 127.320312 39.992188 127.320312 37.199219 L 127.320312 35.007812 C 127.320312 32.191406 129.871094 30 132.601562 30 C 135.328125 30 137.878906 32.191406 137.878906 35.007812 L 137.878906 36.300781 L 134.578125 36.300781 L 134.578125 35.128906 C 134.578125 33.992188 133.5625 33.179688 132.601562 33.179688 C 131.640625 33.179688 130.621094 33.992188 130.621094 35.128906 L 130.621094 37.078125 C 130.621094 38.492188 131.878906 38.878906 133.078125 39.089844 C 135.8125 39.570312 137.878906 41.546875 137.878906 44.160156 L 137.878906 46.351562 C 137.878906 49.167969 135.328125 51.359375 132.601562 51.359375 C 129.871094 51.359375 127.320312 49.167969 127.320312 46.351562 M 114.152344 37.230469 L 114.152344 35.339844 C 114.152344 34.019531 113.007812 33.179688 111.78125 33.179688 L 110.25 33.179688 L 110.25 39.78125 L 111.78125 39.78125 C 113.3125 39.78125 114.152344 39.117188 114.152344 37.230469 M 112.410156 30.179688 C 115.140625 30.179688 117.417969 32.460938 117.417969 35.191406 L 117.417969 37.949219 C 117.417969 39.628906 116.492188 41.3125 114.960938 42.242188 L 118.441406 51.179688 L 114.871094 51.179688 L 111.8125 42.929688 L 110.25 42.929688 L 110.25 51.179688 L 106.953125 51.179688 L 106.953125 30.179688 Z M 85.890625 30.179688 L 95.910156 30.179688 L 95.910156 33.179688 L 89.191406 33.179688 L 89.191406 38.640625 L 95.550781 38.640625 L 95.550781 41.640625 L 89.191406 41.640625 L 89.191406 48.179688 L 95.910156 48.179688 L 95.910156 51.179688 L 85.890625 51.179688 Z M 75.71875 30.179688 L 72.78125 51.179688 L 69.660156 51.179688 L 72.390625 30.179688 Z M 66.8125 30.179688 L 69.539062 51.179688 L 66.417969 51.179688 L 63.480469 30.179688 Z M 46.917969 50.007812 L 46.917969 31.351562 L 44.101562 31.351562 L 44.101562 30.179688 L 53.070312 30.179688 L 53.070312 31.351562 L 50.21875 31.351562 L 50.21875 50.007812 L 53.070312 50.007812 L 53.070312 51.179688 L 44.101562 51.179688 L 44.101562 50.007812 Z M 33.152344 51.179688 L 29.851562 51.179688 L 29.851562 30.179688 L 33.152344 30.179688 Z M 26.613281 30.179688 L 29.730469 51.179688 L 28.589844 51.179688 L 25.46875 30.179688 Z M 25.351562 51.179688 L 22.050781 51.179688 L 22.050781 30.179688 L 25.351562 30.179688 Z M 4.621094 30.179688 L 4.621094 46.230469 C 4.621094 47.367188 5.640625 48.179688 6.601562 48.179688 C 7.5625 48.179688 8.578125 47.367188 8.578125 46.230469 L 8.578125 30.179688 L 11.878906 30.179688 L 11.878906 46.351562 C 11.878906 49.167969 9.328125 51.359375 6.601562 51.359375 C 3.871094 51.359375 1.320312 49.167969 1.320312 46.351562 L 1.320312 30.179688 Z M 135.449219 0.179688 L 138.902344 0.179688 L 135.089844 10.46875 L 139.199219 21.179688 L 135.628906 21.179688 L 131.640625 10.617188 Z M 131.460938 21.179688 L 128.160156 21.179688 L 128.160156 0.179688 L 131.460938 0.179688 Z M 105.390625 0.179688 L 108.8125 0.179688 L 111.601562 8.640625 L 114.390625 0.179688 L 117.78125 0.179688 L 113.160156 13.230469 L 113.160156 21.179688 L 110.007812 21.179688 L 110.007812 13.230469 Z M 93.152344 7.230469 L 93.152344 5.339844 C 93.152344 4.019531 92.007812 3.179688 90.78125 3.179688 L 89.25 3.179688 L 89.25 9.78125 L 90.78125 9.78125 C 92.3125 9.78125 93.152344 9.117188 93.152344 7.230469 M 91.410156 0.179688 C 94.140625 0.179688 96.417969 2.460938 96.417969 5.191406 L 96.417969 7.949219 C 96.417969 9.628906 95.492188 11.3125 93.957031 12.242188 L 97.441406 21.179688 L 93.871094 21.179688 L 90.8125 12.929688 L 89.25 12.929688 L 89.25 21.179688 L 85.949219 21.179688 L 85.949219 0.179688 Z M 69.539062 0.179688 L 67.949219 12.0625 L 71.21875 12.0625 L 69.660156 0.179688 L 72.8125 0.179688 L 75.8125 21.179688 L 72.449219 21.179688 L 71.640625 15.058594 L 67.5625 15.058594 L 66.75 21.179688 L 63.449219 21.179688 L 66.449219 0.179688 Z M 43.320312 16.351562 L 43.320312 15.089844 L 46.621094 15.089844 L 46.621094 16.230469 C 46.621094 17.367188 47.640625 18.179688 48.601562 18.179688 C 49.5625 18.179688 50.578125 17.367188 50.578125 16.230469 L 50.578125 14.28125 C 50.578125 12.867188 49.351562 12.390625 47.96875 12.117188 C 45.390625 11.609375 43.320312 9.992188 43.320312 7.199219 L 43.320312 5.007812 C 43.320312 2.191406 45.871094 0 48.601562 0 C 51.328125 0 53.878906 2.191406 53.878906 5.007812 L 53.878906 6.300781 L 50.578125 6.300781 L 50.578125 5.128906 C 50.578125 3.992188 49.5625 3.179688 48.601562 3.179688 C 47.640625 3.179688 46.621094 3.992188 46.621094 5.128906 L 46.621094 7.078125 C 46.621094 8.492188 47.878906 8.878906 49.078125 9.089844 C 51.8125 9.570312 53.878906 11.546875 53.878906 14.160156 L 53.878906 16.351562 C 53.878906 19.167969 51.328125 21.359375 48.601562 21.359375 C 45.871094 21.359375 43.320312 19.167969 43.320312 16.351562 M 27.539062 0.179688 L 25.953125 12.0625 L 29.21875 12.0625 L 27.660156 0.179688 L 30.8125 0.179688 L 33.8125 21.179688 L 30.453125 21.179688 L 29.640625 15.058594 L 25.5625 15.058594 L 24.75 21.179688 L 21.453125 21.179688 L 24.453125 0.179688 Z M 9.929688 0.179688 L 13.230469 0.179688 L 13.230469 21.179688 L 9.929688 21.179688 Z M 8.703125 0.179688 L 9.8125 0.179688 L 7.769531 21.179688 L 6.660156 21.179688 Z M 3.390625 0.179688 L 4.5 0.179688 L 6.539062 21.179688 L 5.429688 21.179688 Z M 0 0.179688 L 3.269531 0.179688 L 3.269531 21.179688 L 0 21.179688 Z M 0 0.179688 "/>
</svg>
