<?xml version="1.0" encoding="UTF-8"?>
<svg xmlns="http://www.w3.org/2000/svg" xmlns:xlink="http://www.w3.org/1999/xlink" width="285pt" height="284pt" viewBox="0 0 285 284">
<path fill-rule="nonzero" fill="rgb(13.729858%, 12.159729%, 12.548828%)" fill-opacity="1" d="M 202.753906 65.515625 C 196.574219 65.515625 191.5625 70.460938 191.5625 76.5625 L 191.5625 176.5 C 191.5625 185.542969 188.191406 193.726562 182.445312 200.320312 L 182.445312 76.371094 C 182.445312 71.035156 178.46875 66.507812 173.113281 65.75 C 167.761719 64.992188 162.441406 68.097656 161.144531 73.363281 C 142.808594 147.605469 142.664062 148.1875 142.664062 148.191406 C 142.664062 148.1875 142.519531 147.605469 124.128906 73.355469 C 122.828125 68.097656 117.507812 64.992188 112.15625 65.75 C 106.804688 66.511719 102.832031 71.035156 102.832031 76.371094 L 102.832031 200.320312 C 97.082031 193.726562 93.710938 185.542969 93.710938 176.5 L 93.710938 76.5625 C 93.710938 70.460938 88.699219 65.515625 82.519531 65.515625 C 76.339844 65.515625 71.789062 70.460938 71.789062 76.5625 L 71.789062 176.5 C 71.789062 211.636719 103.0625 236.21875 142.636719 236.21875 C 182.210938 236.21875 213.484375 211.636719 213.484375 176.5 L 213.484375 76.5625 C 213.484375 70.460938 208.933594 65.515625 202.753906 65.515625 Z M 123.648438 213.816406 L 123.648438 150.683594 C 123.695312 150.960938 124.550781 154.699219 136.605469 201.105469 C 137.179688 203.308594 139.039062 205.726562 142.6875 205.726562 C 146.453125 205.726562 148.105469 203.625 148.757812 201.105469 C 152.46875 186.773438 161.617188 150.878906 161.617188 150.878906 L 161.625 213.816406 C 155.800781 215.777344 149.390625 216.847656 142.636719 216.847656 C 135.886719 216.847656 129.472656 215.777344 123.648438 213.816406 Z M 18.15625 91.007812 L 18.304688 92.972656 C 18.417969 94.273438 18.550781 94.453125 19.617188 94.929688 C 24.648438 97.222656 33.082031 100.488281 35.578125 101.175781 C 36.183594 101.34375 36.621094 101.210938 37.03125 100.632812 L 38.273438 98.90625 L 38.742188 99.035156 C 38.015625 101.15625 37.289062 103.390625 36.699219 105.40625 C 30.824219 106.039062 24.953125 106.929688 19.074219 107.851562 C 23.503906 111.9375 28.160156 115.726562 32.84375 119.410156 C 32.328125 121.410156 31.816406 123.664062 31.328125 125.964844 L 30.855469 125.835938 L 30.691406 124.191406 C 30.53125 122.660156 30.40625 122.332031 29.796875 122.164062 C 27.46875 121.523438 14.742188 119.617188 12.515625 119.402344 C 11.421875 119.285156 11.074219 119.625 10.617188 120.367188 L 9.609375 122.050781 L 9.136719 121.921875 C 9.699219 120.40625 10.269531 118.859375 10.707031 117.273438 C 11.144531 115.6875 11.433594 114.097656 11.726562 112.507812 L 12.203125 112.636719 L 12.320312 114.449219 C 12.375 115.699219 12.753906 116.164062 13.058594 116.25 C 14.746094 116.714844 28.003906 118.660156 29.722656 118.878906 L 29.742188 118.8125 C 24.179688 114.085938 19.085938 109.921875 13.605469 105.691406 L 13.726562 105.253906 C 20.796875 104.621094 27.71875 103.480469 34.648438 102.445312 L 34.664062 102.378906 C 30.332031 100.714844 20.992188 97.453125 18.730469 96.828125 C 17.957031 96.613281 17.535156 96.824219 16.96875 97.6875 L 15.878906 99.273438 L 15.40625 99.144531 C 15.941406 97.730469 16.46875 96.351562 16.867188 94.898438 C 17.230469 93.585938 17.457031 92.230469 17.683594 90.878906 Z M 9.5625 125.429688 C 9.851562 126.28125 10.203125 127.273438 10.632812 128.128906 C 17.707031 131.398438 25.632812 135.433594 31.847656 138.148438 L 31.824219 138.921875 C 24.460938 141.488281 17.085938 144.402344 9.886719 147.152344 L 8.78125 150.058594 L 8.289062 150.042969 C 8.488281 148.191406 8.6875 146.378906 8.746094 144.523438 C 8.796875 142.949219 8.707031 141.40625 8.613281 139.828125 L 9.105469 139.84375 C 9.289062 140.726562 9.695312 142.242188 10.082031 143.308594 C 11.5625 142.933594 14.886719 141.917969 15.953125 141.460938 C 16.03125 139.992188 16.117188 138.492188 16.164062 137.019531 C 16.210938 135.550781 16.21875 134.117188 16.230469 132.644531 C 14.476562 131.644531 12.429688 131.019531 10.488281 130.46875 L 9.308594 133.441406 L 8.820312 133.425781 C 9 132.066406 9.183594 130.707031 9.230469 129.308594 C 9.269531 128.011719 9.171875 126.714844 9.074219 125.414062 Z M 26.792969 137.5 L 17.652344 133.183594 L 17.402344 141.054688 Z M 15.28125 154.234375 L 15.351562 154.722656 L 11.058594 156.554688 C 10.621094 157.679688 10.652344 159.335938 10.78125 160.203125 C 11.183594 162.972656 12.800781 165.316406 16.023438 164.847656 C 20.941406 164.125 18.933594 153.347656 25.445312 152.390625 C 29.636719 151.777344 32.246094 155.355469 32.796875 159.097656 C 33.011719 160.550781 32.886719 162.832031 32.441406 164.382812 L 27.664062 164.871094 L 27.609375 164.488281 L 31.257812 162.574219 C 31.53125 161.332031 31.574219 160.160156 31.402344 158.980469 C 31.082031 156.800781 29.089844 155.039062 26.769531 155.382812 C 21.332031 156.179688 24.304688 166.8125 17.140625 167.863281 C 14.125 168.308594 10.332031 166.5625 9.332031 159.742188 C 9.089844 158.078125 9.078125 156.5625 9.550781 154.476562 Z M 12.171875 173.210938 C 12.738281 173.902344 13.417969 174.710938 14.117188 175.359375 C 21.890625 175.941406 30.726562 176.945312 37.503906 177.3125 L 37.75 178.039062 C 31.75 183.027344 25.863281 188.34375 20.089844 193.441406 L 20.070312 196.550781 L 19.605469 196.707031 C 19.144531 194.90625 18.691406 193.136719 18.097656 191.378906 C 17.59375 189.886719 16.96875 188.472656 16.328125 187.027344 L 16.792969 186.867188 C 17.273438 187.628906 18.1875 188.910156 18.921875 189.769531 C 20.179688 188.902344 22.933594 186.785156 23.773438 185.984375 C 23.335938 184.582031 22.886719 183.144531 22.414062 181.753906 C 21.945312 180.359375 21.453125 179.011719 20.945312 177.628906 C 18.953125 177.308594 16.816406 177.4375 14.804688 177.601562 L 14.738281 180.800781 L 14.277344 180.960938 C 13.972656 179.621094 13.667969 178.28125 13.21875 176.957031 C 12.800781 175.730469 12.253906 174.550781 11.707031 173.367188 Z M 32.539062 178.476562 L 22.464844 177.636719 L 24.988281 185.09375 Z M 21.660156 199.714844 L 23.804688 201.585938 C 24.570312 202.273438 24.761719 202.324219 27.089844 200.96875 L 38.035156 194.589844 C 40.878906 192.929688 41.039062 192.71875 40.863281 191.929688 L 40.230469 188.894531 L 40.652344 188.648438 C 41.183594 189.839844 41.890625 191.332031 42.84375 192.964844 C 43.757812 194.535156 45.003906 196.117188 46.257812 198.265625 C 48.582031 202.257812 48.464844 205.808594 45.441406 207.570312 C 42.386719 209.351562 39.664062 208.019531 37.589844 205.503906 L 33.792969 213.304688 C 32.183594 216.59375 32.058594 216.867188 32.746094 218.734375 L 32.324219 218.980469 C 31.976562 218.253906 31.613281 217.492188 31.210938 216.792969 C 30.785156 216.070312 30.285156 215.347656 29.785156 214.628906 C 31.921875 210.789062 34.226562 205.84375 35.582031 202.539062 L 34.226562 200.210938 L 30.746094 202.238281 C 26.816406 204.53125 26.171875 205.027344 26.390625 205.953125 L 26.984375 208.847656 L 26.558594 209.09375 C 25.921875 207.722656 24.863281 205.628906 24.246094 204.570312 C 23.347656 203.027344 22.207031 201.34375 21.238281 199.960938 Z M 35.222656 199.632812 L 36.421875 201.6875 C 38.058594 204.5 40.03125 206.835938 43.355469 204.898438 C 46.015625 203.347656 46.089844 200.832031 44.433594 197.988281 C 43.871094 197.023438 43.3125 196.132812 42.78125 195.226562 Z M 38.109375 225.316406 L 39.53125 226.214844 C 41.070312 227.199219 41.609375 227.289062 42.617188 226.421875 L 46.726562 222.882812 C 49.269531 216.445312 50.507812 213.160156 51.578125 209.46875 C 51.53125 208.769531 51.195312 207.953125 50.945312 207.285156 L 51.316406 206.96875 C 52.191406 208.199219 53.070312 209.429688 54.074219 210.597656 C 55.101562 211.792969 56.210938 212.867188 57.34375 213.96875 L 56.972656 214.289062 C 55.277344 213.070312 54.605469 212.773438 54.023438 213.273438 C 53.410156 213.800781 50.132812 222.167969 49.789062 223.429688 C 52.847656 222.691406 60.070312 221.046875 60.730469 220.476562 C 61.15625 220.109375 60.398438 218.640625 59.875 217.65625 L 60.246094 217.339844 C 60.941406 218.355469 61.65625 219.402344 62.457031 220.332031 C 63.183594 221.179688 64 221.910156 64.8125 222.644531 L 64.441406 222.960938 C 63.304688 221.910156 62.023438 222.136719 60.027344 222.605469 L 48.59375 225.15625 L 44.535156 228.648438 C 43.527344 229.515625 43.535156 230.0625 44.28125 231.730469 L 44.960938 233.273438 L 44.589844 233.589844 C 43.691406 232.332031 42.472656 230.703125 41.421875 229.484375 C 40.28125 228.15625 38.847656 226.710938 37.738281 225.636719 Z M 52.15625 240.980469 L 54.847656 241.894531 C 55.734375 242.175781 55.902344 242.128906 57.566406 240.007812 C 58.867188 238.359375 60.222656 236.707031 61.496094 235.035156 C 62.773438 233.367188 64.011719 231.628906 65.257812 229.941406 C 67.199219 227.28125 67.320312 227.066406 66.941406 226.46875 L 65.199219 223.90625 L 65.496094 223.515625 C 66.746094 224.648438 68.027344 225.796875 69.582031 226.988281 C 70.972656 228.050781 72.421875 228.980469 73.898438 229.929688 L 73.597656 230.320312 L 70.667969 229.316406 C 69.992188 229.105469 69.816406 229.28125 67.761719 231.851562 C 66.460938 233.5 65.105469 235.152344 63.832031 236.820312 C 62.558594 238.488281 61.316406 240.230469 60.070312 241.917969 C 58.460938 244.082031 58.460938 244.257812 58.964844 245.039062 L 60.554688 247.398438 L 60.257812 247.785156 C 59.03125 246.675781 57.507812 245.335938 56.28125 244.398438 C 54.890625 243.335938 53.195312 242.214844 51.855469 241.371094 Z M 63.640625 249.757812 C 65.539062 250.5 66.144531 250.746094 66.292969 250.550781 C 66.464844 250.328125 66.367188 249.988281 66.332031 249.523438 L 65.144531 236.546875 L 75.09375 235.691406 C 76.792969 235.535156 77.796875 235.378906 78.007812 235.097656 C 78.242188 234.792969 77.59375 234.03125 76.742188 232.722656 L 77.039062 232.332031 C 78.152344 233.355469 79.289062 234.40625 80.484375 235.316406 C 81.515625 236.101562 82.628906 236.777344 83.742188 237.453125 L 83.445312 237.84375 C 82.542969 237.464844 81.113281 236.855469 79.308594 236.972656 L 68.320312 237.695312 L 69.84375 252.648438 C 69.886719 252.941406 70.027344 253.621094 70.089844 253.714844 C 70.261719 254.066406 70.777344 254.945312 71.34375 255.644531 L 71.046875 256.03125 C 69.796875 254.902344 68.492188 253.726562 67.128906 252.683594 C 65.90625 251.75 64.625 250.949219 63.34375 250.144531 Z M 75.703125 257.746094 L 78.507812 258.199219 C 79.429688 258.332031 79.589844 258.253906 80.878906 255.890625 C 81.890625 254.046875 82.949219 252.191406 83.925781 250.335938 C 84.90625 248.476562 85.84375 246.558594 86.792969 244.683594 C 88.265625 241.742188 88.347656 241.507812 87.875 240.980469 L 85.734375 238.742188 L 85.964844 238.308594 C 87.382812 239.21875 88.835938 240.140625 90.566406 241.054688 C 92.113281 241.875 93.699219 242.550781 95.308594 243.242188 L 95.082031 243.675781 L 92.023438 243.171875 C 91.320312 243.078125 91.175781 243.277344 89.578125 246.15625 C 88.566406 247.996094 87.507812 249.851562 86.527344 251.707031 C 85.546875 253.566406 84.613281 255.484375 83.664062 257.359375 C 82.433594 259.757812 82.464844 259.929688 83.089844 260.617188 L 85.046875 262.679688 L 84.820312 263.113281 C 83.429688 262.222656 81.699219 261.152344 80.339844 260.433594 C 78.789062 259.613281 76.929688 258.789062 75.472656 258.179688 Z M 87.203125 264.199219 C 88.097656 264.175781 89.152344 264.136719 90.09375 263.980469 C 95.324219 258.199219 101.53125 251.835938 105.980469 246.710938 L 106.707031 246.960938 C 106.964844 254.757812 107.554688 262.667969 108.035156 270.355469 L 110.480469 272.277344 L 110.320312 272.742188 C 108.613281 272 106.9375 271.273438 105.1875 270.664062 C 103.699219 270.148438 102.195312 269.773438 100.664062 269.390625 L 100.824219 268.925781 C 101.71875 269.015625 103.289062 269.078125 104.421875 269.027344 C 104.507812 267.5 104.527344 264.023438 104.40625 262.871094 C 103.03125 262.355469 101.621094 261.832031 100.230469 261.347656 C 98.84375 260.867188 97.476562 260.429688 96.074219 259.980469 C 94.597656 261.355469 93.390625 263.125 92.285156 264.816406 L 94.773438 266.828125 L 94.613281 267.289062 C 93.367188 266.710938 92.125 266.132812 90.800781 265.671875 C 89.582031 265.246094 88.308594 264.953125 87.039062 264.660156 Z M 103.851562 251.34375 L 97.007812 258.785156 L 104.449219 261.367188 Z M 140.578125 254.898438 L 138.148438 255.445312 C 137.351562 255.625 136.960938 255.929688 136.847656 256.550781 C 136.390625 259.351562 135.347656 265.464844 135.097656 267.476562 C 134.917969 268.902344 134.421875 272.894531 133.996094 276.863281 L 133.160156 276.761719 C 131.351562 273.183594 129.347656 269.722656 127.386719 266.234375 L 121.515625 255.871094 L 121.445312 255.863281 L 120.964844 259.753906 C 120.390625 264.339844 119.605469 271.191406 119.628906 271.863281 C 119.664062 272.429688 119.871094 272.738281 120.839844 273.175781 L 123.042969 274.191406 L 122.980469 274.679688 C 121.472656 274.351562 119.925781 274.015625 118.394531 273.824219 C 116.902344 273.640625 115.425781 273.59375 113.914062 273.546875 L 113.976562 273.0625 L 116.742188 272.386719 C 117.25 272.273438 117.601562 271.996094 117.675781 271.691406 C 117.953125 270.59375 118.839844 265.453125 119.394531 261.003906 L 120.253906 254.128906 L 119.890625 253.378906 C 118.871094 252.757812 117.84375 252.242188 116.773438 251.753906 L 116.835938 251.269531 C 117.929688 251.546875 119.023438 251.824219 120.136719 251.964844 C 121.179688 252.09375 122.234375 252.082031 123.296875 252.074219 C 123.804688 253.371094 124.394531 254.574219 125.089844 255.789062 L 133.273438 270.214844 L 133.351562 270.152344 L 134.398438 261.746094 C 134.605469 260.082031 134.785156 258.375 134.894531 256.660156 C 134.945312 255.679688 134.699219 255.367188 133.746094 254.824219 L 131.570312 253.601562 L 131.632812 253.113281 C 133.039062 253.429688 134.480469 253.75 135.902344 253.929688 C 137.464844 254.125 139.046875 254.179688 140.660156 254.238281 Z M 141.480469 276.144531 C 142.292969 275.761719 143.238281 275.300781 144.035156 274.777344 C 146.480469 267.375 149.585938 259.042969 151.578125 252.554688 L 152.347656 252.492188 C 155.734375 259.519531 159.476562 266.515625 163.023438 273.351562 L 166.035156 274.121094 L 166.078125 274.609375 C 164.21875 274.621094 162.390625 274.632812 160.542969 274.785156 C 158.972656 274.914062 157.449219 275.179688 155.890625 275.449219 L 155.851562 274.960938 C 156.707031 274.679688 158.167969 274.101562 159.179688 273.597656 C 158.640625 272.167969 157.253906 268.980469 156.679688 267.972656 C 155.210938 268.058594 153.710938 268.148438 152.242188 268.269531 C 150.777344 268.390625 149.351562 268.542969 147.890625 268.699219 C 147.09375 270.554688 146.707031 272.660156 146.378906 274.652344 L 149.46875 275.488281 L 149.507812 275.976562 C 148.136719 275.949219 146.765625 275.921875 145.367188 276.035156 C 144.078125 276.144531 142.800781 276.386719 141.519531 276.636719 Z M 151.507812 257.65625 L 148.261719 267.226562 L 156.109375 266.582031 Z M 177.984375 253.648438 C 176.800781 250.582031 176.613281 250.390625 175.808594 250.4375 L 172.710938 250.582031 L 172.535156 250.125 C 174.382812 249.5625 176.097656 249.050781 177.402344 248.546875 C 178.710938 248.042969 181.089844 246.824219 182.953125 246.105469 C 186.445312 244.757812 190.566406 244.933594 192.078125 248.851562 C 193.121094 251.5625 190.800781 254.292969 187.84375 255.773438 L 187.867188 255.839844 C 191.191406 254.820312 195.410156 254.578125 196.898438 258.433594 C 198.058594 261.4375 196.6875 264.890625 191.984375 266.707031 C 189.503906 267.660156 186.855469 268.382812 184.832031 269.164062 C 183.296875 269.757812 182.039062 270.390625 180.621094 271.089844 L 180.445312 270.632812 L 182.632812 268.8125 C 183.433594 268.164062 183.515625 267.984375 182.542969 265.46875 Z M 182.503906 257.195312 L 185.019531 256.226562 C 187.171875 255.394531 190.363281 253.75 188.929688 250.027344 C 187.695312 246.828125 184.96875 246.566406 182.191406 247.636719 C 181.148438 248.039062 180.460938 248.304688 179.378906 248.796875 C 179.890625 250.324219 180.222656 251.285156 180.789062 252.753906 Z M 185.3125 264.476562 C 185.703125 265.488281 186.113281 266.457031 186.570312 267.445312 C 187.464844 267.136719 188.273438 266.898438 189.089844 266.585938 C 192.257812 265.363281 195.210938 263.398438 193.726562 259.542969 C 192.351562 255.984375 188.894531 255.96875 185.238281 257.378906 L 182.917969 258.273438 Z M 206.054688 260.109375 L 207.820312 257.878906 C 208.46875 257.082031 208.511719 256.886719 207.042969 254.628906 L 200.144531 244 C 198.355469 241.238281 198.132812 241.09375 197.355469 241.304688 L 194.355469 242.085938 L 194.085938 241.671875 C 195.25 241.085938 196.703125 240.308594 198.289062 239.277344 C 199.816406 238.285156 201.339844 236.96875 203.421875 235.613281 C 207.296875 233.097656 210.851562 233.042969 212.757812 235.980469 C 214.683594 238.945312 213.480469 241.726562 211.066406 243.917969 L 219.046875 247.339844 C 222.40625 248.785156 222.6875 248.898438 224.519531 248.121094 L 224.785156 248.535156 C 224.074219 248.914062 223.332031 249.3125 222.65625 249.75 C 221.949219 250.207031 221.253906 250.742188 220.558594 251.277344 C 216.621094 249.328125 211.570312 247.265625 208.207031 246.070312 L 205.945312 247.535156 L 208.136719 250.910156 C 210.613281 254.726562 211.140625 255.347656 212.058594 255.085938 L 214.921875 254.355469 L 215.1875 254.765625 C 213.847656 255.46875 211.804688 256.628906 210.777344 257.292969 C 209.28125 258.265625 207.652344 259.488281 206.320312 260.519531 Z M 205.316406 246.566406 L 207.3125 245.273438 C 210.042969 243.5 212.28125 241.417969 210.1875 238.191406 C 208.511719 235.605469 205.992188 235.65625 203.234375 237.445312 C 202.296875 238.054688 201.433594 238.65625 200.554688 239.226562 Z M 230.628906 212.441406 L 229.96875 213.953125 C 229.601562 214.871094 229.480469 215.441406 229.980469 215.980469 C 231.320312 217.410156 233.410156 219.382812 237.785156 223.816406 C 242.558594 228.644531 242.007812 232.78125 238.339844 236.484375 C 234.765625 240.089844 230.710938 241.050781 226.90625 237.28125 L 219.921875 230.355469 C 217.832031 228.289062 217.261719 227.871094 216.300781 228.292969 L 213.828125 229.394531 L 213.480469 229.050781 C 214.789062 227.929688 216.046875 226.859375 217.203125 225.691406 C 218.507812 224.375 219.691406 222.984375 220.894531 221.566406 L 221.242188 221.910156 L 220.535156 223.472656 C 219.699219 225.359375 219.605469 225.65625 220.425781 226.570312 C 221.816406 228.097656 223.953125 230.214844 227.785156 234.011719 C 230.964844 237.160156 233.769531 238.511719 237.6875 234.558594 C 240.273438 231.949219 240.210938 228.78125 237.226562 225.824219 C 234.167969 222.792969 230.1875 218.902344 228.277344 217.402344 C 227.78125 217.007812 227.210938 217.183594 226.324219 217.632812 L 224.546875 218.582031 L 224.195312 218.234375 C 225.355469 217.265625 226.515625 216.292969 227.597656 215.203125 C 228.535156 214.257812 229.394531 213.1875 230.28125 212.09375 Z M 244.28125 191.191406 L 243.753906 193.621094 C 243.582031 194.425781 243.691406 194.90625 244.207031 195.269531 C 246.558594 196.859375 251.660156 200.382812 253.382812 201.457031 C 254.601562 202.21875 258.015625 204.351562 261.4375 206.40625 L 260.988281 207.117188 C 256.984375 207.257812 253.003906 207.617188 249.011719 207.925781 L 237.144531 208.890625 L 237.105469 208.949219 L 240.429688 211.027344 C 244.347656 213.476562 250.230469 217.070312 250.851562 217.332031 C 251.382812 217.539062 251.75 217.480469 252.554688 216.785156 L 254.402344 215.21875 L 254.816406 215.476562 C 253.882812 216.710938 252.929688 217.96875 252.113281 219.277344 C 251.316406 220.550781 250.65625 221.875 249.976562 223.222656 L 249.5625 222.964844 L 250.109375 220.171875 C 250.222656 219.660156 250.121094 219.226562 249.871094 219.03125 C 248.996094 218.320312 244.703125 215.347656 240.90625 212.972656 L 235.027344 209.300781 L 234.191406 209.316406 C 233.203125 209.976562 232.300781 210.695312 231.410156 211.460938 L 230.996094 211.199219 C 231.707031 210.324219 232.421875 209.449219 233.015625 208.496094 C 233.570312 207.605469 234.007812 206.644531 234.445312 205.675781 C 235.835938 205.765625 237.175781 205.734375 238.570312 205.613281 L 255.097656 204.261719 L 255.074219 204.164062 L 247.894531 199.675781 C 246.46875 198.785156 244.996094 197.90625 243.484375 197.089844 C 242.617188 196.628906 242.230469 196.71875 241.335938 197.355469 L 239.3125 198.816406 L 238.894531 198.554688 C 239.773438 197.410156 240.671875 196.238281 241.433594 195.023438 C 242.269531 193.6875 242.984375 192.277344 243.71875 190.835938 Z M 250.308594 187.847656 C 247.214844 186.71875 246.949219 186.734375 246.453125 187.375 L 244.527344 189.800781 L 244.066406 189.636719 C 245.191406 186.953125 246.234375 184.503906 247.144531 182.003906 C 248.285156 178.878906 249.277344 175.738281 250.203125 172.796875 C 251.011719 173.128906 252.171875 173.628906 252.664062 173.808594 C 253.15625 173.984375 254.300781 174.328125 255.066406 174.570312 L 254.902344 175.03125 L 252.121094 174.988281 C 251.082031 174.980469 250.984375 175.242188 249.609375 179.023438 C 248.914062 180.933594 248.394531 182.457031 247.984375 183.6875 C 249.113281 184.171875 250.292969 184.714844 251.675781 185.21875 L 255.71875 186.691406 L 256.964844 183.269531 C 258.414062 179.289062 258.480469 178.90625 257.863281 178.347656 L 255.84375 176.640625 L 256.011719 176.179688 C 257.246094 176.667969 258.484375 177.15625 259.703125 177.601562 C 261.050781 178.089844 262.3125 178.511719 263.703125 178.984375 L 263.535156 179.441406 L 260.726562 179.386719 C 259.894531 179.421875 259.695312 179.757812 258.246094 183.738281 L 257.003906 187.15625 L 261.476562 188.785156 C 262.988281 189.339844 264.535156 189.789062 265.941406 190.226562 C 266.535156 188.695312 267.199219 187.183594 267.738281 185.707031 C 269.019531 182.1875 269.164062 181.679688 268.890625 181.207031 C 268.542969 180.632812 267.621094 179.890625 265.898438 178.589844 L 266.0625 178.128906 C 266.992188 178.542969 267.933594 179.03125 268.886719 179.382812 L 271.386719 180.292969 C 270.632812 181.953125 268.65625 186.96875 267.984375 188.8125 C 266.929688 191.707031 265.910156 194.910156 265.179688 197.328125 L 264.71875 197.15625 L 264.785156 194.316406 C 264.824219 193.285156 264.742188 193.105469 262.210938 192.183594 Z M 255.441406 145.847656 L 255.945312 148.289062 C 256.117188 149.089844 256.414062 149.484375 257.035156 149.605469 C 259.828125 150.105469 265.921875 151.242188 267.933594 151.523438 C 269.355469 151.726562 273.339844 152.285156 277.300781 152.769531 L 277.183594 153.601562 C 273.578125 155.355469 270.089844 157.304688 266.570312 159.214844 L 256.121094 164.925781 L 256.113281 164.992188 L 259.992188 165.535156 C 264.570312 166.179688 271.40625 167.066406 272.078125 167.058594 C 272.648438 167.03125 272.960938 166.828125 273.414062 165.867188 L 274.460938 163.679688 L 274.945312 163.746094 C 274.59375 165.253906 274.238281 166.792969 274.023438 168.320312 C 273.8125 169.808594 273.746094 171.285156 273.679688 172.796875 L 273.191406 172.726562 L 272.558594 169.949219 C 272.453125 169.441406 272.183594 169.085938 271.878906 169.007812 C 270.785156 168.714844 265.65625 167.746094 261.222656 167.121094 L 254.355469 166.160156 L 253.601562 166.515625 C 252.964844 167.519531 252.433594 168.539062 251.929688 169.601562 L 251.445312 169.53125 C 251.738281 168.441406 252.035156 167.355469 252.1875 166.246094 C 252.335938 165.203125 252.34375 164.144531 252.351562 163.085938 C 253.65625 162.597656 254.867188 162.027344 256.09375 161.351562 L 270.640625 153.390625 L 270.582031 153.3125 L 262.191406 152.132812 C 260.527344 151.898438 258.824219 151.695312 257.113281 151.5625 C 256.132812 151.496094 255.816406 151.734375 255.261719 152.679688 L 254.003906 154.835938 L 253.519531 154.769531 C 253.855469 153.367188 254.199219 151.929688 254.398438 150.507812 C 254.617188 148.949219 254.695312 147.371094 254.78125 145.757812 Z M 270.5625 141.226562 L 270.535156 140.738281 L 274.972656 139.289062 C 275.507812 138.210938 275.625 136.554688 275.574219 135.679688 C 275.414062 132.886719 274.011719 130.40625 270.761719 130.59375 C 265.800781 130.875 266.84375 141.789062 260.273438 142.164062 C 256.046875 142.40625 253.761719 138.609375 253.546875 134.835938 C 253.460938 133.367188 253.785156 131.105469 254.367188 129.601562 L 259.167969 129.535156 L 259.1875 129.921875 L 255.386719 131.507812 C 255 132.71875 254.855469 133.886719 254.925781 135.074219 C 255.050781 137.273438 256.878906 139.203125 259.222656 139.070312 C 264.707031 138.757812 262.683594 127.898438 269.917969 127.484375 C 272.957031 127.3125 276.582031 129.382812 276.976562 136.265625 C 277.070312 137.945312 276.945312 139.460938 276.289062 141.496094 Z M 274.617188 120.9375 L 273.195312 118.476562 C 272.71875 117.679688 272.558594 117.601562 269.910156 118.097656 C 267.84375 118.472656 265.734375 118.824219 263.675781 119.234375 C 261.617188 119.644531 259.535156 120.132812 257.484375 120.578125 C 254.273438 121.292969 254.039062 121.375 253.929688 122.074219 L 253.542969 125.148438 L 253.0625 125.246094 C 252.871094 123.570312 252.671875 121.863281 252.289062 119.941406 C 251.945312 118.222656 251.472656 116.570312 250.992188 114.882812 L 251.472656 114.785156 L 253.011719 117.476562 C 253.382812 118.078125 253.628906 118.066406 256.867188 117.488281 C 258.933594 117.113281 261.039062 116.765625 263.101562 116.351562 C 265.160156 115.941406 267.238281 115.453125 269.292969 115.007812 C 271.929688 114.445312 272.046875 114.316406 272.183594 113.394531 L 272.546875 110.574219 L 273.027344 110.476562 C 273.210938 112.117188 273.472656 114.136719 273.773438 115.648438 C 274.117188 117.363281 274.652344 119.324219 275.097656 120.84375 Z M 265.347656 105.769531 L 265.1875 105.308594 L 269.050781 102.6875 C 269.261719 101.496094 268.910156 99.878906 268.621094 99.050781 C 267.691406 96.410156 265.652344 94.421875 262.582031 95.503906 C 257.894531 97.15625 261.933594 107.347656 255.726562 109.535156 C 251.734375 110.941406 248.484375 107.933594 247.226562 104.367188 C 246.738281 102.980469 246.421875 100.71875 246.5625 99.109375 L 251.152344 97.714844 L 251.28125 98.078125 L 248.070312 100.65625 C 248.035156 101.929688 248.222656 103.089844 248.617188 104.210938 C 249.351562 106.289062 251.644531 107.632812 253.855469 106.855469 C 259.039062 105.027344 254.074219 95.160156 260.90625 92.753906 C 263.777344 91.738281 267.835938 92.722656 270.128906 99.226562 C 270.6875 100.808594 270.988281 102.296875 270.929688 104.4375 Z M 47.261719 47.96875 L 46.738281 49.535156 C 46.457031 50.480469 46.386719 51.0625 46.929688 51.554688 C 48.398438 52.855469 50.65625 54.628906 55.417969 58.648438 C 60.609375 63.023438 60.4375 67.191406 57.117188 71.214844 C 53.890625 75.128906 49.9375 76.453125 45.808594 73.042969 L 38.222656 66.785156 C 35.953125 64.914062 35.347656 64.550781 34.425781 65.058594 L 32.066406 66.378906 L 31.691406 66.066406 C 32.890625 64.835938 34.042969 63.65625 35.089844 62.386719 C 36.273438 60.953125 37.320312 59.460938 38.394531 57.941406 L 38.773438 58.253906 L 38.207031 59.875 C 37.546875 61.828125 37.476562 62.132812 38.378906 62.964844 C 39.90625 64.359375 42.226562 66.277344 46.382812 69.707031 C 49.839844 72.558594 52.753906 73.648438 56.292969 69.355469 C 58.632812 66.519531 58.28125 63.371094 55.042969 60.699219 C 51.722656 57.957031 47.40625 54.441406 45.367188 53.121094 C 44.835938 52.773438 44.285156 53.003906 43.441406 53.53125 L 41.757812 54.636719 L 41.378906 54.324219 C 42.445312 53.253906 43.511719 52.179688 44.492188 50.992188 C 45.339844 49.96875 46.097656 48.824219 46.882812 47.65625 Z M 70.496094 29.335938 L 69.15625 31.4375 C 68.722656 32.132812 68.660156 32.621094 69.019531 33.140625 C 70.675781 35.445312 74.253906 40.507812 75.5 42.113281 C 76.378906 43.246094 78.847656 46.425781 81.351562 49.53125 L 80.6875 50.046875 C 76.878906 48.796875 73.019531 47.761719 69.160156 46.679688 L 57.691406 43.488281 L 57.636719 43.53125 L 60.039062 46.628906 C 62.871094 50.277344 67.15625 55.679688 67.648438 56.140625 C 68.074219 56.519531 68.441406 56.589844 69.433594 56.214844 L 71.710938 55.378906 L 72.011719 55.765625 C 70.710938 56.601562 69.378906 57.457031 68.164062 58.402344 C 66.972656 59.324219 65.898438 60.335938 64.796875 61.371094 L 64.496094 60.984375 L 65.972656 58.550781 C 66.253906 58.109375 66.308594 57.667969 66.144531 57.398438 C 65.566406 56.429688 62.5625 52.160156 59.816406 48.621094 L 55.5625 43.148438 L 54.773438 42.875 C 53.617188 43.152344 52.523438 43.515625 51.425781 43.925781 L 51.125 43.535156 C 52.09375 42.960938 53.066406 42.386719 53.949219 41.699219 C 54.78125 41.054688 55.523438 40.300781 56.265625 39.546875 C 57.542969 40.105469 58.808594 40.535156 60.160156 40.90625 L 76.140625 45.335938 L 76.152344 45.238281 L 70.957031 38.546875 C 69.925781 37.222656 68.847656 35.886719 67.714844 34.597656 C 67.054688 33.867188 66.664062 33.816406 65.605469 34.109375 L 63.199219 34.777344 L 62.898438 34.390625 C 64.117188 33.621094 65.367188 32.832031 66.5 31.949219 C 67.742188 30.984375 68.902344 29.910156 70.085938 28.8125 Z M 84.761719 46.054688 L 86.695312 43.972656 C 87.316406 43.277344 87.339844 43.105469 86.089844 40.71875 C 85.117188 38.855469 84.164062 36.945312 83.164062 35.097656 C 82.164062 33.25 81.085938 31.40625 80.054688 29.578125 C 78.425781 26.71875 78.277344 26.519531 77.578125 26.621094 L 74.527344 27.15625 L 74.292969 26.726562 C 75.835938 26.050781 77.410156 25.355469 79.132812 24.421875 C 80.671875 23.589844 82.113281 22.648438 83.585938 21.691406 L 83.820312 22.125 L 81.703125 24.386719 C 81.234375 24.917969 81.320312 25.148438 82.824219 28.078125 C 83.792969 29.941406 84.75 31.851562 85.75 33.695312 C 86.75 35.542969 87.828125 37.386719 88.859375 39.21875 C 90.171875 41.570312 90.332031 41.644531 91.25 41.503906 L 94.054688 41.019531 L 94.285156 41.453125 C 92.773438 42.113281 90.921875 42.953125 89.570312 43.6875 C 88.03125 44.523438 86.308594 45.613281 84.992188 46.484375 Z M 87.503906 19.441406 C 89.066406 19.035156 90.664062 18.621094 92.183594 18.085938 C 93.570312 17.597656 94.945312 16.96875 96.28125 16.347656 L 96.445312 16.808594 L 95.40625 17.546875 C 94.039062 18.511719 93.800781 18.777344 93.929688 19.144531 C 94.171875 19.835938 102.015625 28.613281 104.800781 31.566406 C 105.113281 26.035156 105.289062 20.632812 105.152344 16.558594 C 105.140625 15.894531 105.144531 15.488281 105.019531 15.121094 C 104.890625 14.761719 103.738281 14.757812 102.125 14.808594 L 101.960938 14.34375 C 103.261719 14.035156 104.5625 13.726562 105.816406 13.285156 C 106.839844 12.921875 107.785156 12.441406 108.726562 11.960938 L 108.890625 12.421875 C 107.601562 13.285156 107.265625 13.8125 107.132812 15.121094 C 106.644531 20.375 106.328125 27.796875 106.199219 37.121094 L 105.441406 37.386719 C 101.179688 32.136719 94.882812 25.003906 91.113281 20.949219 C 90.15625 19.914062 89.890625 19.898438 88.707031 19.90625 L 87.664062 19.902344 Z M 118.40625 15.496094 C 117.949219 12.238281 117.8125 12.011719 117.015625 11.878906 L 113.964844 11.316406 L 113.898438 10.832031 C 116.792969 10.5625 119.445312 10.332031 122.082031 9.960938 C 125.375 9.496094 128.613281 8.898438 131.644531 8.328125 C 131.730469 9.203125 131.835938 10.460938 131.910156 10.980469 C 131.980469 11.5 132.21875 12.667969 132.363281 13.460938 L 131.878906 13.527344 L 130.613281 11.054688 C 130.128906 10.132812 129.851562 10.171875 125.867188 10.734375 C 123.855469 11.019531 122.265625 11.277344 120.988281 11.492188 C 121.089844 12.714844 121.167969 14.011719 121.371094 15.46875 L 121.972656 19.730469 L 125.578125 19.222656 C 129.769531 18.632812 130.144531 18.507812 130.347656 17.703125 L 130.902344 15.113281 L 131.386719 15.046875 C 131.539062 16.367188 131.6875 17.691406 131.867188 18.972656 C 132.070312 20.394531 132.289062 21.703125 132.53125 23.15625 L 132.046875 23.226562 L 130.773438 20.71875 C 130.351562 20 129.960938 19.984375 125.769531 20.574219 L 122.164062 21.082031 L 122.828125 25.796875 C 123.054688 27.390625 123.382812 28.96875 123.65625 30.414062 C 125.289062 30.222656 126.933594 30.09375 128.492188 29.875 C 132.199219 29.351562 132.71875 29.246094 133.003906 28.78125 C 133.347656 28.203125 133.570312 27.039062 133.90625 24.90625 L 134.394531 24.839844 C 134.464844 25.851562 134.472656 26.910156 134.613281 27.917969 L 134.984375 30.550781 C 133.164062 30.664062 127.808594 31.28125 125.867188 31.554688 C 122.816406 31.984375 119.507812 32.589844 117.03125 33.082031 L 116.964844 32.597656 L 119.507812 31.320312 C 120.433594 30.871094 120.550781 30.710938 120.175781 28.042969 Z M 138.007812 29.664062 L 140.746094 28.90625 C 141.742188 28.644531 141.890625 28.515625 142.039062 25.824219 L 142.742188 13.171875 C 142.925781 9.890625 142.835938 9.636719 142.078125 9.351562 L 139.199219 8.210938 L 139.226562 7.71875 C 140.511719 7.933594 142.144531 8.160156 144.03125 8.269531 C 145.851562 8.367188 147.855469 8.199219 150.339844 8.335938 C 154.953125 8.59375 157.851562 10.648438 157.65625 14.144531 C 157.460938 17.671875 154.851562 19.210938 151.609375 19.554688 L 156.03125 27.023438 C 157.890625 30.175781 158.050781 30.429688 159.988281 30.886719 L 159.960938 31.378906 C 159.160156 31.261719 158.324219 31.144531 157.519531 31.101562 C 156.683594 31.054688 155.804688 31.074219 154.929688 31.097656 C 152.902344 27.199219 150.039062 22.554688 148.03125 19.601562 L 145.339844 19.453125 L 145.117188 23.472656 C 144.863281 28.015625 144.925781 28.824219 145.816406 29.152344 L 148.558594 30.253906 L 148.53125 30.742188 C 147.039062 30.519531 144.703125 30.246094 143.480469 30.179688 C 141.699219 30.082031 139.664062 30.109375 137.980469 30.15625 Z M 145.402344 18.300781 L 147.78125 18.429688 C 151.027344 18.613281 154.0625 18.253906 154.277344 14.410156 C 154.449219 11.335938 152.390625 9.890625 149.105469 9.707031 C 147.988281 9.644531 146.9375 9.621094 145.890625 9.5625 Z M 164.886719 26.234375 L 165.359375 26.355469 L 165.421875 31.023438 C 166.296875 31.855469 167.839844 32.457031 168.6875 32.667969 C 171.40625 33.347656 174.1875 32.742188 174.980469 29.585938 C 176.183594 24.765625 165.453125 22.515625 167.046875 16.132812 C 168.074219 12.023438 172.378906 10.972656 176.046875 11.886719 C 177.472656 12.242188 179.535156 13.226562 180.800781 14.230469 L 179.433594 18.828125 L 179.058594 18.738281 L 178.679688 14.636719 C 177.632812 13.90625 176.5625 13.421875 175.410156 13.136719 C 173.269531 12.601562 170.886719 13.773438 170.316406 16.046875 C 168.984375 21.378906 179.953125 22.675781 178.195312 29.703125 C 177.457031 32.65625 174.402344 35.503906 167.714844 33.832031 C 166.082031 33.425781 164.675781 32.855469 162.925781 31.625 Z M 179.835938 36.289062 L 182.675781 36.460938 C 183.601562 36.496094 183.753906 36.40625 184.800781 33.925781 C 185.621094 31.992188 186.488281 30.039062 187.277344 28.09375 C 188.070312 26.148438 188.808594 24.144531 189.566406 22.183594 C 190.738281 19.109375 190.796875 18.871094 190.273438 18.394531 L 187.917969 16.378906 L 188.105469 15.925781 C 189.605469 16.6875 191.144531 17.460938 192.960938 18.199219 C 194.582031 18.859375 196.222656 19.371094 197.894531 19.902344 L 197.714844 20.355469 L 194.621094 20.15625 C 193.910156 20.136719 193.785156 20.347656 192.484375 23.371094 C 191.660156 25.304688 190.792969 27.253906 190.003906 29.199219 C 189.214844 31.144531 188.476562 33.148438 187.71875 35.109375 C 186.734375 37.621094 186.78125 37.789062 187.472656 38.410156 L 189.628906 40.265625 L 189.441406 40.722656 C 187.972656 39.972656 186.144531 39.078125 184.71875 38.5 C 183.097656 37.839844 181.160156 37.207031 179.648438 36.742188 Z M 201.972656 21.605469 C 204.535156 23.253906 207.066406 24.886719 209.699219 26.417969 C 212.332031 27.949219 215.007812 29.339844 217.710938 30.746094 L 214.71875 35.894531 L 214.296875 35.644531 L 214.796875 32.699219 C 214.96875 31.421875 214.734375 31.125 210.195312 28.488281 L 202.53125 41.683594 C 201.652344 43.195312 201.253906 44.015625 201.191406 44.546875 C 201.144531 45.046875 201.566406 45.777344 203.429688 47.871094 L 203.183594 48.296875 C 201.828125 47.347656 200.566406 46.453125 198.691406 45.363281 C 196.816406 44.269531 195.414062 43.617188 193.921875 42.914062 L 194.167969 42.488281 C 196.90625 43.070312 197.785156 43.09375 198.164062 42.789062 C 198.59375 42.46875 199.109375 41.71875 199.988281 40.203125 L 207.65625 27.011719 C 203.117188 24.371094 202.742188 24.316406 201.722656 25.101562 L 199.40625 26.996094 L 198.984375 26.746094 Z M 205.992188 48.921875 C 206.839844 49.230469 207.832031 49.574219 208.765625 49.773438 C 215.742188 46.300781 223.847656 42.636719 229.859375 39.488281 L 230.441406 39.988281 C 227.839844 47.339844 225.503906 54.921875 223.144531 62.253906 L 224.722656 64.9375 L 224.402344 65.308594 C 223.085938 63.996094 221.789062 62.707031 220.382812 61.503906 C 219.183594 60.480469 217.921875 59.585938 216.636719 58.667969 L 216.953125 58.296875 C 217.753906 58.703125 219.195312 59.335938 220.265625 59.699219 C 220.902344 58.308594 222.1875 55.078125 222.5 53.964844 C 221.402344 52.980469 220.28125 51.976562 219.164062 51.023438 C 218.050781 50.066406 216.9375 49.160156 215.796875 48.230469 C 213.917969 48.972656 212.148438 50.179688 210.503906 51.351562 L 212.085938 54.132812 L 211.769531 54.503906 C 210.820312 53.511719 209.875 52.515625 208.8125 51.605469 C 207.824219 50.765625 206.75 50.03125 205.675781 49.296875 Z M 226.1875 43.027344 L 217.101562 47.460938 L 223.085938 52.578125 Z M 231.105469 64.097656 L 231.40625 64.480469 L 228.597656 68.210938 C 228.78125 69.402344 229.632812 70.824219 230.175781 71.511719 C 231.90625 73.710938 234.476562 74.9375 237.035156 72.925781 C 240.9375 69.851562 233.828125 61.503906 239 57.433594 C 242.324219 54.8125 246.375 56.613281 248.714844 59.582031 C 249.621094 60.738281 250.652344 62.777344 251.039062 64.34375 L 247.140625 67.148438 L 246.902344 66.84375 L 249.109375 63.367188 C 248.730469 62.152344 248.183594 61.113281 247.445312 60.179688 C 246.082031 58.449219 243.476562 57.914062 241.636719 59.367188 C 237.320312 62.765625 245.195312 70.503906 239.507812 74.988281 C 237.113281 76.871094 232.957031 77.25 228.691406 71.835938 C 227.652344 70.515625 226.886719 69.203125 226.253906 67.160156 Z M 256.203125 82.863281 C 256.203125 84.820312 254.617188 86.40625 252.660156 86.40625 C 250.703125 86.40625 249.117188 84.820312 249.117188 82.863281 C 249.117188 80.90625 250.703125 79.320312 252.660156 79.320312 C 254.617188 79.320312 256.203125 80.90625 256.203125 82.863281 Z M 36.539062 82.863281 C 36.539062 84.820312 34.953125 86.40625 32.996094 86.40625 C 31.039062 86.40625 29.453125 84.820312 29.453125 82.863281 C 29.453125 80.90625 31.039062 79.320312 32.996094 79.320312 C 34.953125 79.320312 36.539062 80.90625 36.539062 82.863281 "/>
</svg>
