<?xml version="1.0" encoding="UTF-8"?>
<svg xmlns="http://www.w3.org/2000/svg" xmlns:xlink="http://www.w3.org/1999/xlink" width="290pt" height="290pt" viewBox="0 0 290 290">
<path fill-rule="nonzero" fill="rgb(0%, 0%, 0%)" fill-opacity="1" d="M 156.402344 249.527344 L 155.667969 249.886719 L 135.417969 249.886719 L 128.433594 237.371094 L 147.933594 237.371094 L 148.667969 237.011719 L 235.511719 85.761719 L 242.136719 99.371094 Z M 165.605469 139.496094 L 166.339844 139.855469 L 168.917969 152.371094 L 161.183594 167.464844 L 158.605469 153.480469 L 157.871094 153.105469 L 109.667969 153.105469 L 117.761719 139.496094 Z M 145.355469 233.324219 L 78.386719 116.667969 L 94.574219 116.667969 L 111.871094 147.214844 L 108.183594 153.480469 L 116.292969 168.558594 L 126.230469 168.933594 L 153.089844 218.980469 Z M 182.527344 116.667969 L 188.417969 105.996094 L 189.886719 116.667969 L 196.886719 116.667969 L 146.089844 203.886719 L 127.324219 168.933594 L 161.183594 168.933594 L 169.652344 152.371094 L 166.699219 138.746094 L 117.027344 138.746094 L 112.605469 146.121094 L 95.683594 116.667969 Z M 205.714844 100.855469 L 197.621094 115.574219 L 190.996094 115.574219 L 188.777344 100.855469 Z M 189.511719 96.433594 L 187.308594 100.121094 L 188.042969 104.527344 L 182.527344 114.839844 L 180.324219 99.011719 L 187.308594 86.496094 Z M 56.667969 85.386719 L 186.574219 85.386719 L 179.589844 98.277344 L 48.574219 98.277344 Z M 124.746094 233.324219 L 129.542969 233.324219 L 127.324219 236.636719 L 135.058594 250.621094 L 156.402344 250.621094 L 243.246094 99.371094 C 242.136719 96.808594 235.886719 84.292969 235.886719 84.292969 L 196.511719 84.292969 L 190.261719 95.324219 L 187.683594 84.292969 C 143.886719 84.292969 99.730469 84.292969 55.933594 84.292969 L 47.105469 98.277344 Z M 157.871094 153.105469 L 158.605469 153.480469 L 166.339844 139.855469 L 165.605469 139.496094 Z M 156.402344 249.527344 L 155.667969 249.886719 L 147.933594 237.371094 L 148.667969 237.011719 Z M 4.417969 157.152344 C 4.417969 159.355469 6.261719 161.199219 8.464844 161.199219 C 10.308594 161.199219 12.136719 159.355469 12.136719 157.152344 C 12.136719 155.308594 10.308594 153.480469 8.464844 153.480469 C 6.261719 153.480469 4.417969 155.308594 4.417969 157.152344 Z M 274.902344 157.152344 C 274.902344 159.355469 276.730469 161.199219 278.949219 161.199219 C 280.777344 161.199219 282.621094 159.355469 282.621094 157.152344 C 282.621094 155.308594 280.777344 153.480469 278.949219 153.480469 C 276.730469 153.480469 274.902344 155.308594 274.902344 157.152344 Z M 0.730469 147.214844 L 0.730469 145.371094 C 0.730469 145.011719 0.730469 144.277344 1.839844 144.277344 L 15.449219 144.277344 C 16.558594 144.277344 16.558594 145.011719 16.558594 145.371094 L 16.558594 147.214844 L 17.292969 147.214844 L 17.292969 139.121094 L 16.558594 139.121094 L 16.558594 140.964844 C 16.558594 141.324219 16.183594 142.058594 15.089844 142.058594 L 8.824219 142.058594 L 8.824219 140.589844 C 8.824219 139.121094 10.308594 138.011719 12.136719 137.652344 L 12.136719 136.917969 L 4.777344 136.917969 L 4.777344 137.652344 C 6.621094 138.011719 7.730469 139.121094 7.730469 140.589844 L 7.730469 142.058594 L 1.839844 142.058594 C 0.730469 142.058594 0.730469 142.058594 0.730469 140.964844 L 0.730469 138.386719 C 0.730469 137.277344 1.105469 136.183594 1.839844 135.074219 C 2.574219 134.699219 4.042969 133.964844 5.886719 133.605469 L 5.886719 132.871094 L -0.00390625 133.230469 L -0.00390625 147.214844 Z M 1.464844 122.933594 C 11.042969 129.183594 15.824219 132.136719 16.183594 132.496094 C 16.558594 132.871094 16.933594 133.230469 16.558594 134.339844 L 17.292969 134.339844 L 18.402344 128.074219 L 17.667969 127.714844 C 16.933594 131.027344 17.292969 131.761719 12.886719 128.449219 L 13.980469 121.824219 L 17.292969 121.089844 C 17.667969 121.089844 18.761719 121.464844 18.402344 123.292969 L 19.136719 123.667969 L 20.246094 116.667969 L 19.496094 116.667969 C 19.496094 117.777344 19.136719 118.152344 18.027344 118.511719 L 1.464844 121.824219 C 0.730469 122.199219 0.730469 122.558594 1.464844 122.933594 Z M 12.886719 122.199219 L 11.777344 128.074219 L 4.417969 124.027344 Z M 8.089844 99.746094 C 6.621094 101.589844 5.886719 102.324219 5.511719 103.792969 C 4.042969 108.214844 6.996094 112.621094 12.511719 114.089844 C 17.292969 115.574219 21.339844 112.621094 22.808594 108.574219 C 23.917969 105.261719 22.074219 102.324219 18.761719 100.480469 C 18.402344 100.480469 18.027344 100.855469 18.402344 101.214844 C 21.339844 103.058594 23.183594 105.261719 22.074219 108.574219 C 21.714844 111.527344 18.027344 112.621094 13.246094 111.152344 C 7.355469 109.683594 5.511719 106.730469 6.621094 104.167969 C 6.996094 103.058594 7.730469 101.949219 8.824219 101.214844 C 9.933594 100.855469 11.777344 100.480469 13.621094 100.480469 L 13.980469 100.121094 L 6.996094 97.902344 L 6.996094 98.636719 Z M 9.574219 94.230469 C 11.042969 91.277344 9.574219 90.542969 16.933594 94.589844 C 20.605469 96.433594 22.808594 97.167969 23.917969 97.167969 C 25.761719 97.167969 31.652344 93.855469 29.808594 87.605469 C 29.433594 86.496094 28.339844 85.386719 26.496094 84.652344 L 18.761719 80.980469 C 17.292969 79.871094 16.933594 79.136719 18.027344 77.292969 L 16.933594 76.558594 L 13.980469 82.824219 L 15.089844 83.558594 C 16.183594 80.980469 16.183594 80.980469 18.761719 82.449219 C 30.542969 87.230469 29.433594 89.074219 27.964844 92.011719 C 26.871094 94.589844 26.121094 94.964844 24.292969 94.964844 C 23.558594 94.964844 21.339844 94.230469 17.667969 92.386719 C 14.355469 90.542969 12.511719 89.808594 12.136719 89.449219 C 12.136719 89.074219 12.511719 88.339844 13.246094 86.871094 L 12.511719 86.136719 L 8.824219 93.855469 Z M 18.761719 75.089844 C 20.246094 72.511719 19.136719 72.152344 26.871094 76.933594 C 35.324219 81.714844 33.855469 80.980469 32.386719 83.558594 L 32.746094 83.917969 L 40.480469 71.777344 L 34.964844 67.730469 L 34.589844 68.464844 C 37.902344 71.402344 38.636719 73.246094 37.167969 75.824219 C 34.589844 79.871094 36.433594 79.871094 27.964844 75.089844 C 20.246094 70.308594 21.339844 71.042969 23.183594 68.089844 L 22.449219 67.730469 L 18.027344 74.714844 Z M 32.011719 64.792969 L 32.386719 64.042969 C 28.339844 56.683594 31.652344 55.949219 32.386719 56.683594 C 39.371094 62.574219 43.058594 65.886719 43.058594 66.261719 C 43.417969 66.621094 43.058594 66.996094 41.949219 68.089844 L 42.683594 68.839844 L 47.464844 62.949219 L 46.730469 62.214844 C 45.996094 63.308594 45.261719 64.042969 44.902344 64.042969 C 44.527344 63.683594 41.214844 60.730469 34.230469 54.855469 C 32.746094 53.371094 34.230469 49.699219 41.214844 54.121094 L 41.589844 53.011719 L 36.433594 48.964844 L 27.605469 59.996094 Z M 43.058594 41.605469 C 47.839844 51.902344 50.042969 57.417969 49.683594 58.167969 C 49.683594 58.527344 49.308594 59.261719 48.949219 59.636719 L 49.683594 59.996094 L 54.089844 55.589844 L 53.730469 54.855469 C 51.152344 58.167969 50.417969 55.589844 50.042969 54.480469 L 49.308594 52.636719 L 54.089844 47.855469 C 59.980469 50.808594 58.511719 50.058594 56.667969 51.902344 L 57.402344 52.277344 L 62.558594 47.496094 L 61.824219 47.121094 C 61.089844 47.855469 60.355469 48.230469 59.621094 47.855469 L 44.152344 40.871094 C 43.417969 40.496094 42.683594 40.496094 43.058594 41.605469 Z M 52.996094 47.496094 L 48.574219 51.902344 L 45.261719 44.183594 Z M 61.824219 27.980469 C 59.980469 27.980469 51.511719 29.824219 56.308594 36.824219 C 57.777344 38.652344 59.980469 38.652344 63.292969 37.558594 C 68.449219 35.714844 68.449219 35.714844 69.917969 37.183594 C 71.386719 38.652344 70.652344 40.871094 68.808594 42.339844 C 66.246094 43.808594 63.292969 43.808594 60.355469 40.871094 L 59.621094 41.605469 L 63.292969 47.121094 L 64.402344 46.386719 L 64.761719 44.183594 C 70.292969 46.011719 72.871094 38.292969 71.027344 35.714844 C 68.808594 32.761719 67.339844 33.136719 62.558594 34.980469 C 59.980469 35.714844 55.199219 36.449219 56.308594 32.402344 C 57.042969 29.089844 61.089844 27.980469 65.496094 31.292969 L 66.246094 30.933594 L 62.183594 26.152344 L 61.824219 26.511719 Z M 82.792969 30.199219 C 82.792969 32.027344 82.433594 33.136719 81.324219 33.511719 L 81.324219 34.246094 L 86.839844 31.667969 L 86.480469 30.933594 C 85.011719 32.027344 83.902344 33.136719 83.902344 27.246094 L 89.792969 24.308594 C 94.214844 27.621094 94.214844 27.621094 91.636719 28.714844 L 91.636719 29.464844 L 97.886719 26.511719 L 97.511719 26.152344 C 96.417969 26.511719 95.683594 26.511719 94.949219 25.777344 L 82.792969 14.371094 C 82.058594 13.636719 81.699219 13.636719 81.699219 14.730469 Z M 89.058594 23.574219 L 83.542969 26.152344 L 82.792969 17.683594 Z M 93.105469 10.683594 C 95.683594 9.589844 95.683594 8.480469 98.621094 16.949219 C 101.574219 25.402344 101.199219 24.308594 98.621094 25.402344 L 98.621094 26.152344 L 106.355469 23.574219 L 105.980469 22.839844 C 103.402344 23.199219 103.777344 25.042969 100.824219 16.214844 C 104.511719 15.105469 105.980469 15.480469 107.089844 19.152344 C 108.183594 22.464844 113.714844 24.667969 112.980469 17.308594 C 112.980469 16.949219 112.246094 16.214844 112.246094 17.308594 C 112.980469 19.886719 111.496094 20.996094 109.292969 18.042969 C 107.824219 14.730469 107.449219 15.480469 104.136719 14.730469 C 107.824219 12.902344 108.933594 11.058594 108.183594 9.214844 C 107.089844 6.277344 104.511719 5.542969 101.199219 7.011719 L 92.730469 9.949219 Z M 100.824219 15.480469 C 97.511719 7.746094 97.511719 8.855469 101.574219 7.746094 C 103.402344 7.371094 104.886719 7.746094 105.621094 9.214844 C 107.089844 12.167969 105.246094 13.996094 102.308594 15.105469 Z M 112.980469 10.683594 L 113.714844 10.324219 C 114.449219 4.433594 117.027344 2.964844 118.121094 4.058594 C 118.496094 4.058594 118.871094 6.277344 119.605469 11.058594 C 120.699219 15.839844 121.074219 18.417969 120.699219 18.792969 C 120.699219 19.152344 119.964844 19.152344 118.496094 19.527344 L 118.496094 20.261719 L 126.230469 19.152344 L 126.230469 18.417969 C 123.277344 18.792969 123.652344 19.886719 121.808594 10.683594 C 121.074219 5.902344 120.699219 3.699219 120.699219 3.324219 C 121.074219 2.964844 124.386719 0.746094 126.964844 8.121094 L 128.058594 8.121094 L 126.589844 1.496094 L 112.605469 4.058594 Z M 131.011719 1.855469 C 133.949219 1.496094 133.949219 1.496094 133.949219 2.964844 C 134.683594 11.792969 134.683594 16.574219 134.324219 16.949219 C 133.949219 17.308594 133.214844 17.308594 131.746094 17.683594 L 131.746094 18.417969 L 139.839844 17.683594 L 139.839844 16.949219 C 138.371094 16.949219 137.261719 16.949219 136.902344 16.574219 C 136.527344 16.214844 136.527344 11.792969 136.152344 2.964844 C 136.152344 1.496094 136.152344 1.496094 139.105469 1.121094 L 139.105469 0.386719 L 131.011719 1.121094 Z M 150.886719 1.855469 C 149.042969 0.746094 147.933594 0.0117188 146.464844 0.0117188 C 143.511719 0.0117188 141.308594 2.230469 141.308594 5.542969 C 141.308594 6.636719 141.683594 7.746094 142.777344 8.855469 C 143.511719 9.214844 144.621094 9.949219 146.464844 10.324219 C 151.246094 11.417969 151.980469 11.792969 151.980469 13.996094 C 151.980469 15.839844 150.511719 17.308594 147.933594 17.308594 C 144.996094 17.308594 142.417969 15.480469 142.042969 11.417969 L 140.949219 11.417969 L 140.949219 18.042969 L 142.042969 18.042969 L 143.511719 16.574219 C 144.621094 17.683594 146.089844 18.417969 147.933594 18.417969 C 151.246094 18.417969 153.824219 15.839844 153.824219 12.902344 C 153.824219 9.949219 152.355469 8.855469 147.199219 7.746094 C 143.152344 6.277344 142.777344 6.277344 142.777344 4.058594 C 142.777344 2.589844 144.621094 1.121094 146.464844 1.121094 C 149.042969 1.121094 150.511719 2.589844 151.980469 6.636719 L 152.714844 6.636719 L 152.355469 0.386719 L 151.621094 0.386719 Z M 165.964844 2.589844 C 169.277344 3.699219 168.917969 2.230469 167.433594 11.417969 C 166.339844 20.261719 165.964844 18.792969 163.027344 18.417969 L 163.027344 19.152344 L 171.121094 20.621094 L 171.121094 19.886719 C 168.167969 19.527344 167.808594 20.621094 169.277344 11.792969 C 170.746094 2.589844 170.011719 2.964844 174.058594 4.058594 L 174.058594 3.324219 L 165.964844 1.855469 Z M 176.277344 4.808594 C 177.371094 5.167969 178.105469 5.167969 178.480469 5.542969 C 178.839844 5.902344 177.746094 9.949219 175.167969 18.042969 C 174.792969 19.527344 173.324219 20.261719 171.855469 19.886719 L 171.480469 20.621094 L 178.480469 22.464844 L 178.480469 22.089844 C 176.636719 20.996094 176.277344 19.886719 176.636719 18.417969 L 179.589844 8.480469 L 185.839844 24.667969 L 186.949219 25.042969 C 189.511719 15.105469 190.996094 10.324219 191.730469 9.949219 C 192.464844 9.589844 193.199219 9.589844 193.933594 9.949219 L 194.308594 9.214844 L 188.042969 7.371094 L 188.042969 8.121094 C 188.777344 8.480469 189.152344 8.855469 189.511719 9.589844 C 189.886719 9.949219 189.152344 13.996094 186.949219 21.355469 L 180.324219 5.167969 L 176.277344 4.058594 Z M 195.042969 10.683594 C 197.980469 11.792969 199.089844 10.683594 195.042969 19.527344 C 191.730469 27.980469 192.089844 26.511719 189.511719 25.402344 L 189.152344 26.152344 L 196.511719 29.089844 L 196.886719 28.355469 C 193.933594 27.246094 192.824219 28.714844 196.886719 20.261719 C 200.183594 21.730469 200.183594 22.839844 199.824219 25.402344 L 200.183594 25.402344 L 203.136719 18.417969 L 202.402344 18.042969 C 201.292969 19.886719 200.183594 20.996094 197.246094 19.527344 L 199.449219 13.636719 C 201.667969 12.527344 207.917969 15.105469 206.074219 20.621094 L 206.449219 20.996094 L 208.292969 15.480469 L 195.402344 9.949219 Z M 219.699219 21.355469 C 216.746094 19.152344 210.871094 21.355469 208.652344 25.042969 C 206.074219 30.199219 207.558594 34.980469 211.230469 37.183594 C 214.917969 39.386719 220.058594 37.917969 222.636719 33.136719 C 225.214844 28.714844 224.105469 23.574219 219.699219 21.355469 Z M 219.699219 22.464844 C 221.902344 23.933594 223.011719 26.152344 220.058594 32.027344 C 216.746094 37.558594 213.808594 37.917969 211.605469 36.449219 C 209.027344 34.980469 208.292969 32.027344 211.230469 26.511719 C 214.167969 22.089844 217.121094 20.996094 219.699219 22.464844 Z M 229.636719 29.089844 C 231.105469 30.199219 231.464844 31.292969 230.730469 32.402344 C 225.589844 39.386719 222.636719 42.699219 222.277344 43.074219 C 221.902344 43.074219 221.167969 42.699219 220.058594 41.605469 L 219.699219 42.339844 L 225.949219 47.121094 L 226.324219 46.746094 C 224.480469 44.917969 223.011719 46.011719 228.902344 39.027344 C 232.574219 41.230469 232.214844 42.339844 230.371094 44.917969 C 228.527344 47.855469 228.527344 49.699219 229.636719 50.808594 C 231.464844 51.902344 232.949219 51.167969 234.777344 49.324219 C 235.152344 48.964844 235.511719 47.855469 234.417969 48.964844 C 231.464844 51.167969 230.730469 49.699219 232.214844 47.496094 C 234.042969 44.183594 233.683594 43.449219 231.839844 40.496094 C 235.886719 44.917969 244.355469 40.871094 236.996094 33.871094 L 229.996094 28.714844 Z M 229.636719 38.292969 C 234.042969 32.027344 233.308594 32.027344 236.261719 34.605469 C 238.089844 35.714844 238.464844 36.824219 238.089844 37.917969 C 237.355469 40.496094 234.777344 42.699219 229.636719 38.292969 Z M 246.558594 43.449219 C 247.667969 44.542969 248.027344 45.277344 247.667969 45.652344 C 247.667969 46.011719 244.355469 48.589844 238.089844 54.121094 C 236.621094 55.214844 235.886719 55.214844 234.417969 54.121094 L 233.683594 54.480469 L 238.089844 59.261719 L 238.824219 58.902344 C 237.730469 57.417969 237.355469 56.324219 237.730469 55.949219 C 238.089844 55.589844 241.777344 52.277344 248.761719 46.386719 L 240.308594 61.839844 L 240.667969 62.214844 L 257.230469 56.324219 C 249.871094 62.574219 245.824219 65.886719 245.089844 65.886719 C 244.714844 65.886719 243.980469 65.152344 243.246094 64.042969 L 242.511719 64.417969 L 247.667969 70.667969 L 248.402344 70.308594 C 246.558594 67.730469 245.089844 68.839844 252.449219 62.949219 C 260.167969 56.683594 258.699219 58.167969 259.808594 59.636719 L 260.542969 59.261719 L 257.230469 55.214844 L 243.621094 60.371094 L 250.605469 47.121094 L 247.292969 43.074219 Z M 268.277344 70.308594 C 257.230469 72.152344 251.339844 72.886719 250.605469 72.886719 C 250.246094 72.511719 249.496094 72.152344 249.136719 71.402344 L 248.402344 71.777344 L 251.714844 77.292969 L 252.449219 76.933594 C 251.339844 74.355469 249.871094 73.980469 255.761719 73.246094 L 259.433594 79.136719 C 256.496094 83.558594 256.496094 83.558594 255.027344 80.980469 L 254.292969 81.339844 L 257.964844 87.230469 L 258.339844 86.871094 C 257.964844 85.761719 257.964844 85.027344 258.339844 84.652344 L 268.636719 71.042969 C 269.011719 70.308594 269.011719 70.308594 268.277344 70.308594 Z M 260.167969 78.402344 L 256.871094 72.886719 L 264.964844 71.402344 Z M 267.167969 81.714844 L 267.542969 82.449219 C 269.371094 82.074219 270.839844 82.074219 271.949219 82.449219 C 274.902344 83.558594 274.902344 85.027344 274.527344 85.386719 C 274.527344 85.761719 270.105469 87.605469 260.917969 91.277344 C 260.542969 91.277344 260.542969 91.652344 259.433594 89.074219 L 258.699219 89.449219 L 261.652344 96.433594 L 262.386719 96.058594 C 262.011719 94.230469 259.808594 93.855469 268.636719 90.542969 C 273.058594 88.699219 275.261719 87.964844 275.636719 88.339844 C 275.996094 88.339844 279.308594 90.917969 272.324219 94.964844 L 272.683594 95.699219 L 278.949219 93.121094 L 273.417969 80.246094 Z M 285.574219 120.714844 C 286.667969 118.886719 286.667969 117.402344 286.667969 115.933594 C 285.933594 111.886719 281.886719 108.574219 275.996094 109.308594 C 271.589844 110.042969 267.902344 114.089844 268.636719 118.152344 C 269.011719 122.199219 271.589844 124.027344 275.636719 124.027344 C 276.371094 124.027344 276.371094 123.292969 275.636719 123.292969 C 272.324219 122.933594 269.746094 121.464844 269.371094 118.152344 C 269.011719 115.199219 271.589844 112.621094 276.371094 112.261719 C 282.621094 111.152344 285.199219 113.355469 285.574219 116.308594 C 285.574219 117.402344 285.199219 118.511719 284.464844 119.621094 C 283.355469 120.714844 282.261719 121.464844 280.417969 122.558594 L 280.417969 122.933594 L 287.402344 121.824219 L 287.042969 121.089844 Z M 280.042969 97.542969 C 280.417969 100.480469 280.777344 100.480469 279.308594 100.855469 L 266.433594 104.527344 C 266.058594 104.527344 265.699219 104.902344 264.589844 101.949219 L 263.855469 101.949219 L 266.058594 110.042969 L 266.792969 109.683594 C 266.433594 106.730469 264.964844 106.730469 273.792969 104.167969 C 282.996094 101.589844 281.152344 102.683594 282.261719 105.261719 L 282.996094 105.261719 L 280.777344 97.167969 Z M 287.777344 130.292969 C 287.777344 133.605469 287.402344 133.230469 287.042969 133.230469 C 286.667969 133.230469 284.464844 132.136719 279.683594 130.292969 C 270.480469 126.246094 271.214844 126.605469 271.214844 125.136719 L 270.480469 125.136719 L 270.839844 129.917969 L 271.589844 129.917969 C 271.589844 126.980469 271.589844 127.714844 278.574219 130.652344 L 278.574219 135.449219 C 271.214844 135.808594 271.949219 136.183594 271.949219 133.230469 L 271.214844 133.230469 L 272.324219 147.214844 L 278.949219 146.855469 L 278.574219 146.121094 C 273.792969 145.371094 273.058594 145.011719 272.324219 140.964844 C 272.324219 138.011719 271.214844 137.652344 280.042969 137.652344 C 280.042969 141.699219 279.308594 142.058594 276.730469 142.058594 L 276.730469 142.433594 L 284.824219 142.058594 L 284.824219 141.699219 C 282.261719 141.324219 281.152344 140.230469 280.777344 137.652344 L 287.042969 137.277344 C 287.402344 137.277344 288.136719 136.542969 288.136719 141.324219 C 288.511719 143.542969 286.667969 145.011719 283.355469 145.371094 L 283.730469 146.121094 L 289.246094 145.371094 L 288.511719 130.292969 Z M 279.683594 135.449219 L 279.683594 131.027344 L 287.402344 134.339844 C 287.402344 135.074219 286.667969 135.074219 285.933594 135.074219 Z M 16.933594 164.152344 C 17.292969 167.464844 18.402344 167.089844 10.667969 168.933594 C 6.996094 169.667969 4.777344 170.402344 4.042969 171.136719 C 2.574219 172.605469 2.214844 174.824219 2.574219 177.761719 C 2.949219 179.605469 4.042969 181.074219 5.511719 182.183594 C 6.621094 182.917969 9.199219 182.542969 13.246094 181.449219 C 17.292969 180.339844 19.871094 179.964844 20.246094 180.339844 C 20.605469 180.699219 20.980469 181.808594 21.339844 182.917969 L 22.449219 182.542969 L 20.605469 175.558594 L 19.871094 175.917969 C 19.871094 177.386719 19.871094 178.136719 18.761719 178.496094 C 18.402344 178.871094 7.730469 182.183594 5.886719 181.074219 C 3.308594 178.496094 3.308594 174.449219 5.511719 172.980469 C 5.886719 172.605469 8.089844 172.246094 11.777344 171.136719 C 15.449219 170.027344 17.292969 169.292969 17.667969 169.667969 C 18.027344 170.027344 18.402344 170.761719 18.761719 172.246094 L 19.871094 172.246094 L 17.667969 163.777344 Z M 22.074219 183.277344 C 22.449219 184.011719 22.449219 184.746094 22.074219 185.496094 C 22.074219 185.855469 18.027344 187.699219 10.308594 190.277344 C 8.824219 190.636719 7.355469 189.902344 6.996094 188.433594 L 6.261719 188.808594 L 8.824219 195.417969 L 9.574219 195.058594 C 9.199219 193.949219 8.824219 193.214844 9.199219 192.855469 C 9.574219 192.121094 13.621094 190.277344 20.980469 187.699219 L 11.402344 202.792969 C 11.042969 203.527344 11.402344 203.527344 11.777344 203.527344 C 20.980469 200.214844 26.121094 198.730469 26.871094 199.105469 C 27.605469 199.480469 27.964844 199.839844 28.339844 200.214844 L 29.074219 200.214844 L 26.871094 194.324219 L 26.121094 194.683594 C 26.496094 195.058594 26.496094 195.792969 26.121094 196.527344 C 25.761719 197.261719 22.074219 198.730469 14.714844 201.308594 L 23.917969 186.589844 L 22.808594 182.917969 Z M 28.339844 200.214844 C 29.808594 202.792969 30.542969 203.152344 23.183594 206.464844 C 16.183594 209.777344 15.824219 210.152344 14.355469 207.574219 L 13.621094 207.933594 L 17.292969 214.933594 L 18.027344 214.558594 C 16.558594 211.980469 16.933594 211.621094 23.183594 208.308594 C 30.167969 204.996094 30.542969 204.621094 32.011719 207.199219 L 32.746094 206.839844 L 28.699219 199.480469 Z M 32.386719 207.933594 C 32.746094 208.667969 33.121094 209.402344 32.746094 209.777344 C 32.746094 210.152344 29.433594 215.292969 22.808594 224.496094 C 22.808594 224.496094 22.449219 225.230469 23.183594 224.871094 C 34.230469 222.292969 40.105469 221.183594 40.480469 221.558594 C 41.214844 221.917969 41.589844 222.292969 41.949219 222.652344 L 42.324219 222.292969 L 39.011719 216.761719 L 38.277344 217.136719 C 39.746094 219.714844 40.105469 220.074219 39.011719 220.449219 C 38.636719 220.824219 34.230469 221.558594 26.496094 223.027344 C 31.277344 216.027344 33.855469 212.714844 34.230469 212.714844 C 34.589844 212.355469 34.589844 212.355469 34.964844 212.355469 C 35.324219 212.355469 35.699219 213.089844 36.433594 214.199219 L 37.167969 213.824219 L 33.121094 207.574219 Z M 42.683594 223.386719 C 44.152344 224.871094 43.792969 225.964844 37.902344 230.746094 C 32.386719 235.167969 32.011719 235.542969 30.542969 233.699219 L 29.808594 234.058594 L 39.011719 245.105469 L 44.152344 241.417969 L 43.792969 240.683594 C 37.542969 245.105469 33.855469 237.746094 33.855469 237.746094 C 33.855469 237.371094 35.699219 235.902344 39.746094 232.589844 C 41.589844 235.542969 41.214844 236.636719 39.371094 238.121094 L 39.746094 238.855469 L 45.996094 233.324219 L 45.636719 232.964844 C 43.792969 234.433594 42.683594 234.808594 40.105469 232.230469 L 44.902344 228.183594 C 47.464844 227.808594 52.621094 234.058594 47.105469 237.011719 L 47.464844 237.371094 L 52.261719 233.699219 L 43.058594 223.027344 Z M 53.355469 235.902344 C 56.308594 238.855469 54.824219 238.855469 50.042969 244.730469 C 45.261719 250.261719 44.902344 249.527344 43.058594 247.683594 L 42.324219 248.042969 L 48.574219 253.574219 L 48.949219 253.199219 C 46.371094 250.621094 46.730469 250.996094 52.261719 245.480469 L 53.355469 246.574219 C 54.824219 248.042969 54.824219 249.152344 53.355469 251.355469 C 50.417969 255.777344 51.152344 256.511719 51.886719 257.246094 C 53.355469 258.714844 55.199219 258.355469 57.042969 256.152344 C 57.402344 255.777344 57.402344 255.402344 56.667969 255.777344 C 48.949219 259.824219 59.980469 250.261719 54.824219 247.683594 C 58.511719 250.261719 60.355469 249.886719 61.824219 248.417969 C 63.667969 246.574219 63.292969 243.996094 60.714844 241.417969 L 54.089844 235.167969 Z M 52.621094 245.105469 C 58.136719 238.855469 57.042969 238.855469 59.621094 241.417969 C 62.933594 244.730469 61.089844 246.574219 59.246094 247.683594 C 57.777344 248.042969 56.667969 248.417969 52.621094 245.105469 Z M 75.433594 253.933594 C 73.964844 252.089844 73.964844 250.996094 72.496094 249.886719 C 69.917969 248.417969 66.980469 248.792969 65.136719 251.355469 C 64.402344 252.464844 64.402344 253.933594 64.761719 255.042969 C 65.136719 256.152344 65.871094 257.246094 66.980469 258.355469 C 69.917969 262.027344 70.652344 262.761719 69.183594 264.605469 C 68.074219 266.074219 66.605469 266.449219 64.027344 264.980469 C 61.449219 263.511719 60.714844 260.199219 62.558594 256.886719 L 61.824219 256.152344 L 58.136719 261.667969 L 58.886719 262.402344 L 61.089844 262.027344 C 61.089844 263.511719 61.824219 264.980469 63.667969 266.074219 C 72.121094 269.027344 75.808594 261.667969 68.808594 256.511719 C 66.246094 253.199219 65.871094 252.839844 67.339844 250.996094 C 68.449219 249.886719 70.292969 249.527344 72.121094 250.621094 C 73.964844 252.089844 74.699219 254.308594 73.605469 258.355469 L 73.964844 258.714844 L 77.277344 253.574219 L 76.542969 253.199219 Z M 79.121094 255.777344 C 80.230469 256.152344 80.964844 256.886719 80.964844 257.980469 C 80.964844 258.714844 78.746094 262.761719 74.699219 269.761719 C 74.339844 270.496094 73.230469 270.496094 71.386719 269.386719 L 71.027344 270.136719 L 78.386719 273.808594 L 78.746094 273.074219 C 76.917969 272.699219 76.167969 271.964844 76.542969 270.871094 L 82.792969 259.089844 C 83.167969 257.980469 83.542969 257.980469 86.105469 259.464844 L 86.480469 258.714844 L 79.480469 255.042969 Z M 85.371094 266.074219 L 86.105469 266.449219 C 89.417969 260.933594 92.730469 262.027344 92.730469 263.511719 C 93.105469 263.871094 92.371094 266.074219 90.527344 270.136719 C 89.058594 274.183594 87.949219 276.746094 87.589844 277.121094 C 87.214844 277.496094 86.105469 277.121094 85.011719 276.386719 L 84.636719 277.121094 L 91.636719 280.058594 L 91.996094 279.324219 C 89.058594 278.230469 89.417969 278.230469 92.371094 270.496094 C 94.214844 266.449219 94.949219 264.605469 95.308594 264.246094 C 96.417969 263.871094 100.089844 263.511719 98.261719 271.230469 L 99.355469 271.605469 L 101.199219 265.339844 L 88.324219 260.199219 Z M 109.292969 267.558594 C 102.308594 276.386719 98.621094 280.808594 98.261719 281.167969 C 97.886719 281.542969 97.152344 281.542969 96.417969 281.167969 L 96.042969 281.902344 L 102.667969 283.746094 L 102.667969 283.011719 C 98.996094 282.277344 99.730469 281.542969 102.308594 277.855469 L 108.933594 280.058594 C 110.027344 284.855469 108.933594 284.855469 107.089844 284.480469 L 106.714844 285.214844 L 113.339844 287.058594 L 113.714844 286.324219 C 112.605469 285.949219 111.871094 285.589844 111.871094 284.480469 L 110.402344 267.558594 C 110.027344 266.824219 109.667969 267.183594 109.292969 267.558594 Z M 108.933594 278.964844 L 103.042969 277.121094 L 107.824219 270.496094 Z M 129.167969 273.449219 C 127.324219 271.230469 121.433594 267.917969 119.230469 275.652344 C 118.871094 276.746094 119.230469 277.855469 119.964844 278.964844 C 120.699219 279.699219 121.808594 280.433594 123.652344 281.167969 C 128.058594 283.011719 128.433594 283.011719 128.433594 285.589844 C 128.433594 287.417969 126.589844 288.527344 124.011719 288.167969 C 121.074219 287.792969 118.871094 285.589844 118.871094 281.542969 L 117.761719 281.542969 L 117.027344 287.792969 L 118.121094 288.167969 L 119.605469 286.683594 C 120.699219 288.167969 122.167969 288.902344 124.011719 289.261719 C 129.902344 290.371094 131.011719 284.121094 129.902344 282.277344 C 129.542969 280.808594 128.058594 280.058594 124.746094 278.589844 C 120.699219 276.386719 120.699219 276.746094 120.699219 274.183594 C 121.074219 272.699219 122.917969 271.605469 124.746094 271.964844 C 127.324219 272.339844 128.433594 273.808594 129.542969 278.230469 L 130.277344 278.230469 L 130.636719 271.964844 L 129.902344 271.964844 Z M 142.042969 273.449219 C 144.996094 273.449219 144.621094 273.449219 144.621094 274.542969 L 145.355469 286.683594 C 145.355469 288.527344 144.996094 289.261719 143.152344 289.261719 L 143.152344 289.996094 L 149.777344 289.636719 L 149.777344 288.902344 C 147.199219 288.902344 146.464844 287.792969 146.464844 285.949219 L 145.730469 273.074219 L 153.089844 289.261719 L 153.824219 289.261719 L 158.246094 272.339844 L 159.339844 287.058594 C 159.339844 287.417969 158.980469 288.167969 157.871094 288.167969 L 156.402344 288.167969 L 156.761719 288.902344 L 164.871094 288.527344 L 164.496094 287.792969 L 163.027344 287.792969 C 161.917969 287.792969 161.558594 287.792969 161.558594 286.683594 L 160.808594 273.449219 C 160.808594 272.339844 160.449219 271.964844 163.386719 271.964844 L 163.386719 271.230469 L 157.496094 271.605469 L 153.824219 285.949219 L 147.199219 272.339844 L 141.683594 272.699219 Z M 171.480469 269.027344 C 169.277344 280.433594 168.167969 286.324219 167.808594 286.683594 C 167.808594 287.058594 167.433594 287.058594 166.339844 287.417969 L 166.339844 288.167969 L 172.589844 287.058594 L 172.589844 286.324219 C 170.011719 286.683594 168.542969 287.058594 170.011719 281.902344 L 176.636719 280.808594 C 180.324219 285.949219 179.214844 285.214844 177.011719 285.589844 L 177.011719 286.324219 L 183.996094 284.855469 L 183.636719 284.121094 C 182.527344 284.480469 181.792969 284.121094 181.417969 283.371094 L 172.589844 269.027344 C 171.855469 268.292969 171.855469 268.652344 171.480469 269.027344 Z M 176.277344 279.699219 L 170.011719 280.808594 L 171.480469 272.699219 Z M 191.355469 264.980469 C 189.886719 264.605469 180.683594 264.246094 183.996094 271.964844 C 185.105469 274.542969 186.949219 274.917969 190.261719 274.542969 C 195.402344 273.449219 195.777344 273.808594 196.511719 276.386719 C 197.621094 277.855469 196.886719 279.324219 194.308594 280.433594 C 191.355469 281.542969 188.042969 280.433594 186.574219 277.121094 L 185.464844 277.496094 L 187.683594 283.746094 L 188.417969 283.371094 L 189.886719 281.167969 C 190.996094 282.277344 192.824219 282.277344 194.667969 281.542969 C 200.558594 279.699219 198.714844 273.074219 196.511719 272.339844 C 195.402344 271.230469 194.308594 271.230469 190.261719 271.605469 C 185.464844 272.339844 183.636719 270.871094 184.730469 267.917969 C 186.574219 263.871094 189.511719 264.980469 194.308594 269.027344 L 195.042969 268.652344 L 192.464844 263.136719 L 191.730469 263.511719 Z M 200.183594 259.464844 C 201.292969 270.496094 201.667969 276.386719 201.292969 276.746094 C 200.933594 277.121094 200.558594 277.855469 199.824219 278.230469 L 200.183594 278.589844 L 206.074219 275.652344 L 205.714844 274.917969 C 203.871094 276.386719 202.402344 276.011719 202.402344 271.605469 L 208.292969 268.652344 C 213.808594 272.339844 212.339844 271.964844 209.761719 273.074219 L 210.121094 273.808594 L 216.386719 270.871094 L 216.011719 270.136719 L 215.277344 270.496094 C 214.917969 270.871094 214.167969 270.496094 213.433594 270.136719 L 200.933594 258.714844 C 200.558594 258.355469 200.183594 258.355469 200.183594 259.464844 Z M 207.558594 267.917969 L 202.027344 270.496094 L 201.292969 262.402344 Z M 208.652344 256.152344 C 211.230469 254.667969 211.605469 255.042969 211.964844 255.402344 C 216.746094 262.402344 219.324219 266.449219 219.324219 267.183594 C 219.699219 267.558594 218.964844 268.292969 217.855469 269.027344 L 218.230469 269.761719 L 224.839844 265.339844 L 224.480469 264.605469 C 221.902344 266.449219 221.902344 265.714844 221.542969 265.339844 L 217.855469 259.824219 C 221.542969 257.621094 221.542969 257.621094 224.105469 260.199219 C 227.417969 264.246094 227.792969 263.511719 229.261719 262.761719 C 231.105469 261.667969 231.105469 260.199219 229.636719 257.621094 C 229.261719 257.246094 229.261719 257.621094 229.261719 257.980469 C 230.371094 265.339844 224.839844 254.308594 220.433594 257.621094 C 223.011719 255.042969 224.839844 252.839844 222.636719 250.621094 C 221.542969 248.792969 218.964844 248.792969 215.652344 250.621094 L 208.292969 255.402344 Z M 217.480469 259.089844 C 213.074219 252.839844 213.074219 253.574219 215.652344 252.089844 C 221.902344 248.417969 224.839844 254.308594 217.480469 259.089844 Z M 224.480469 245.839844 C 225.589844 245.105469 225.949219 244.730469 226.324219 244.730469 C 226.683594 244.371094 230.371094 245.480469 236.621094 247.683594 L 239.933594 251.730469 C 240.308594 252.089844 240.308594 252.464844 238.464844 254.308594 L 238.824219 255.042969 L 245.089844 249.527344 L 244.355469 248.792969 C 242.511719 250.621094 242.136719 252.839844 237.730469 245.839844 C 234.777344 234.433594 235.511719 235.902344 236.996094 234.433594 L 236.261719 234.058594 L 231.839844 238.121094 L 232.214844 238.855469 L 232.949219 238.121094 C 233.308594 237.746094 234.417969 237.746094 234.777344 238.121094 C 235.152344 238.480469 235.511719 241.058594 236.621094 245.839844 C 225.949219 243.261719 228.152344 242.527344 229.636719 241.058594 L 229.261719 240.324219 L 223.746094 245.105469 Z M 238.464844 232.964844 C 239.933594 231.121094 240.308594 231.496094 240.667969 231.855469 C 247.292969 237.371094 250.605469 240.683594 250.980469 241.058594 C 251.339844 241.417969 251.339844 242.167969 250.246094 243.261719 L 250.980469 243.636719 L 256.121094 237.746094 L 255.386719 237.011719 C 253.558594 239.949219 253.558594 239.214844 249.496094 235.902344 L 249.136719 232.230469 C 259.808594 232.230469 258.699219 233.699219 256.871094 235.542969 L 257.605469 235.902344 L 262.386719 230.011719 L 261.652344 229.652344 C 261.277344 230.011719 260.917969 230.386719 260.167969 230.746094 C 259.808594 230.746094 255.761719 230.386719 248.761719 229.652344 C 247.667969 222.292969 248.027344 221.558594 249.136719 220.074219 L 248.402344 219.714844 L 243.980469 224.871094 L 244.714844 225.605469 C 245.824219 224.136719 246.558594 223.761719 246.933594 225.230469 C 247.292969 225.605469 248.027344 228.917969 248.402344 235.167969 C 239.933594 228.183594 241.402344 228.917969 243.246094 227.074219 L 242.886719 226.339844 L 237.730469 232.589844 Z M 249.871094 218.605469 C 251.339844 216.027344 251.339844 216.027344 252.808594 217.136719 C 260.167969 221.558594 263.855469 224.136719 264.230469 224.496094 C 264.589844 224.871094 264.230469 225.964844 263.121094 227.074219 L 263.855469 227.449219 L 268.277344 220.824219 L 267.542969 220.449219 C 266.058594 223.027344 267.167969 224.136719 253.917969 215.292969 C 252.449219 214.199219 252.449219 214.558594 254.292969 211.980469 L 253.558594 211.621094 L 249.136719 218.246094 Z M 256.871094 203.886719 C 264.589844 211.621094 268.277344 215.667969 268.636719 216.761719 C 269.011719 217.511719 269.011719 218.246094 268.636719 218.980469 L 269.371094 218.980469 L 272.324219 213.089844 L 271.589844 212.714844 C 270.105469 216.027344 269.746094 215.667969 266.433594 211.980469 L 269.371094 206.089844 C 274.152344 206.089844 274.527344 206.839844 273.417969 208.667969 L 274.152344 209.042969 L 277.105469 202.792969 L 276.371094 202.417969 C 275.996094 203.152344 275.636719 203.527344 274.527344 203.886719 L 257.230469 202.792969 C 256.871094 202.792969 256.121094 202.792969 256.871094 203.886719 Z M 268.277344 206.089844 L 265.699219 211.621094 L 259.808594 205.730469 Z M 261.652344 196.902344 C 262.746094 194.324219 261.652344 193.214844 274.902344 198.730469 C 276.371094 199.105469 277.105469 200.949219 276.730469 202.042969 L 277.464844 202.417969 L 279.683594 195.792969 L 278.949219 195.417969 C 278.574219 197.261719 279.308594 198.730469 265.699219 193.949219 L 282.261719 188.433594 L 282.621094 187.699219 C 273.417969 184.386719 268.636719 182.542969 268.277344 182.183594 C 267.902344 181.808594 267.542969 181.074219 267.902344 179.605469 L 267.167969 179.230469 L 265.324219 185.121094 L 266.058594 185.496094 C 266.433594 183.652344 266.058594 181.808594 278.949219 187.324219 L 262.386719 192.855469 L 260.917969 196.527344 Z M 281.152344 182.542969 C 282.621094 183.652344 282.996094 184.386719 282.621094 185.855469 L 283.355469 185.855469 L 284.824219 179.605469 L 284.089844 179.230469 C 283.355469 182.542969 283.355469 182.917969 279.308594 179.964844 L 280.777344 173.339844 C 287.402344 171.511719 285.574219 173.339844 285.199219 175.183594 L 285.933594 175.183594 L 287.402344 168.558594 L 286.667969 168.199219 C 286.308594 169.292969 285.933594 169.667969 285.199219 170.027344 L 268.277344 172.605469 C 267.902344 172.605469 267.167969 172.605469 267.902344 173.339844 Z M 279.683594 173.339844 L 278.214844 179.605469 L 271.214844 174.824219 Z M 279.683594 173.339844 "/>
<path fill-rule="nonzero" fill="rgb(98.826599%, 83.201599%, 31.37207%)" fill-opacity="1" d="M 242.136719 99.371094 L 235.511719 85.761719 L 148.667969 237.011719 L 156.402344 249.527344 Z M 117.761719 139.496094 L 109.667969 153.105469 L 157.871094 153.105469 L 165.605469 139.496094 Z M 153.089844 218.980469 L 126.230469 168.933594 L 116.292969 168.558594 L 108.183594 153.480469 L 111.871094 147.214844 L 94.574219 116.667969 L 78.386719 116.667969 L 145.355469 233.324219 Z M 161.183594 167.464844 L 168.917969 152.371094 L 166.339844 139.855469 L 158.605469 153.480469 Z M 135.417969 249.886719 L 155.667969 249.886719 L 147.933594 237.371094 L 128.433594 237.371094 Z M 188.777344 100.855469 L 190.996094 115.574219 L 197.621094 115.574219 L 205.714844 100.855469 Z M 187.308594 86.496094 L 180.324219 99.011719 L 182.527344 114.839844 L 188.042969 104.527344 L 187.308594 100.121094 L 189.511719 96.433594 Z M 48.574219 98.277344 L 179.589844 98.277344 L 186.574219 85.386719 L 56.667969 85.386719 Z M 48.574219 98.277344 "/>
</svg>
